<?xml version="1.0" encoding="UTF-8"?>
<svg id="Layer_2" data-name="Layer 2" xmlns="http://www.w3.org/2000/svg" xmlns:xlink="http://www.w3.org/1999/xlink" viewBox="0 0 737.51 234.13">
  <defs>
    <style>
      .cls-1 {
        clip-path: url(#clippath);
      }

      .cls-2 {
        fill: none;
      }

      .cls-2, .cls-3, .cls-4, .cls-5, .cls-6, .cls-7, .cls-8, .cls-9, .cls-10, .cls-11, .cls-12, .cls-13, .cls-14, .cls-15, .cls-16, .cls-17, .cls-18, .cls-19, .cls-20, .cls-21, .cls-22, .cls-23, .cls-24, .cls-25, .cls-26, .cls-27, .cls-28, .cls-29, .cls-30, .cls-31, .cls-32 {
        stroke-width: 0px;
      }

      .cls-33 {
        opacity: .1;
      }

      .cls-3 {
        fill: #fcc900;
      }

      .cls-3, .cls-4, .cls-5, .cls-6 {
        fill-rule: evenodd;
      }

      .cls-4 {
        fill: #e9b702;
      }

      .cls-5 {
        fill: #f4c006;
      }

      .cls-6 {
        fill: #f8df2e;
      }

      .cls-8 {
        fill: #f9f5f5;
      }

      .cls-9 {
        fill: #4f91ff;
      }

      .cls-10 {
        fill: #53beed;
      }

      .cls-11 {
        fill: #2c3b53;
      }

      .cls-12 {
        fill: #474646;
      }

      .cls-13 {
        fill: #457aef;
      }

      .cls-14 {
        fill: #3a63df;
      }

      .cls-15 {
        fill: #3ba2ff;
      }

      .cls-16 {
        fill: #1a8ce4;
      }

      .cls-17 {
        fill: #1a3a9e;
      }

      .cls-18 {
        fill: #197bb5;
      }

      .cls-19 {
        fill: #3599d7;
      }

      .cls-20 {
        fill: #10489c;
      }

      .cls-21 {
        fill: #415371;
      }

      .cls-22 {
        fill: #113e56;
      }

      .cls-23 {
        fill: #20719e;
      }

      .cls-24 {
        fill: #162c70;
      }

      .cls-25 {
        fill: #165070;
      }

      .cls-26 {
        fill: #130073;
      }

      .cls-27 {
        fill: #112256;
      }

      .cls-28 {
        fill: #e2dfde;
      }

      .cls-29 {
        fill: #fff;
      }

      .cls-30 {
        fill: #00529a;
      }

      .cls-31 {
        fill: #0069ca;
      }

      .cls-32 {
        fill: #0061b9;
      }
    </style>
    <clipPath id="clippath">
      <circle class="cls-2" cx="637.08" cy="100.43" r="100.42"/>
    </clipPath>
  </defs>
  <g id="Layer_1-2" data-name="Layer 1">
    <g>
      <g class="cls-1">
        <g>
          <path class="cls-4" d="m641.33,165.46l.99.85,1.79-2.06-.99-.85-1.79,2.06Zm-.85.76l1.21,1.05c.42.35,1.04.31,1.38-.1l2-2.3c.35-.42.31-1.04-.1-1.38l-1.22-1.06c-.4-.34-1.02-.3-1.38.1l-1.98,2.3c-.36.4-.31,1.04.1,1.38h0Zm4.89-5.44l.98.87,1.8-2.08-.99-.85-1.79,2.06Zm-.85.76l1.21,1.05c.41.37,1.04.31,1.38-.1l2-2.3c.34-.4.3-1.02-.1-1.38l-1.22-1.06c-.4-.34-1.02-.3-1.38.1l-1.99,2.32c-.36.4-.3,1.02.1,1.37h0Z"/>
          <g>
            <g>
              <g>
                <path class="cls-11" d="m526.99,182.52c-2.14-3.79-8.21-12.64-13.99-18.08-5.78-5.43-8.78-9.16-14.12-3.96-5.35,5.2-27.99,28.52-31.41,33.27-3.42,4.76-11.38,17.95-7.55,21.19,3.83,3.24,7.73,3.27,10.37,1.07,2.64-2.2,7.82-3.51,11.63-5.3s12.83-6.73,14.46-6.35c1.62.38,17.52,4.26,20.55,3.07,1.39-.55,2.43-6.63,4.54-12.03,2.48-6.35,5.94-12.16,5.53-12.89Z"/>
                <path class="cls-21" d="m470.28,216.02c1.86-1.55,3.85-1.66,7.46-3.65.14-.63.59-.75,1.31-1.19,1.49-.91,3.63-1.43,4.49-3.09.57-1.09.47-2.32,1.17-3.33.86-1.23,2.77-1.92,4.1-2.48,1.56-.65,3.16-1.17,4.78-1.63,1.83-.51,4.04-.86,5.7-1.79,2.07-1.16,3.72-4.19,4.21-6.34.07-.31.55-.26.6.03.33,1.83-.35,4.76,1.1,6.05,1.22,1.08,2.77,1.63,4.33,1.99,3.13.73,6.37,1.67,9.61,1.85.64-2.12,1.36-4.65,2.3-7.06,2.48-6.35,5.94-12.16,5.53-12.89-2.14-3.79-8.21-12.64-13.99-18.08-5.78-5.43-8.24-8.75-13.59-3.54-5.35,5.2-28.12,28.25-31.54,33-3.42,4.76-11.79,17.8-7.96,21.04,3.83,3.24,7.73,3.27,10.37,1.07Z"/>
                <path class="cls-8" d="m479.06,211.18c.45-.28.96-.52,1.48-.76-.09-.41-.19-.81-.31-1.21-.27-.9-.66-2.29-1.58-2.76-1.38-.69-2.99.89-3.86,1.77-1.7,1.71-.92.88-2.4,2.76-.84,1.06-1.84,2.19-2.28,3.5-.2.62-.24,1.22-.15,1.79.11-.08.2-.2.33-.25,2.5-1.06,3.85-1.66,7.46-3.65.14-.63.59-.75,1.31-1.19Z"/>
                <path class="cls-19" d="m521.59,175.68c-2.02.26-4.45,1.58-6.34,2.33-3.74,1.49-6.7,4.04-8.9,7.47-1.9,2.96-2.75,5.3-3.27,8.7.33,1.63.87,3.32,2.14,4.44,1.22,1.08,2.77,1.63,4.33,1.99,3.13.73,6.37,1.67,9.61,1.85.64-2.12,1.36-4.65,2.3-7.06,2.48-6.35,5.94-12.16,5.53-12.89-.91-1.61-2.54-4.15-4.55-6.94-.28.03-.57.06-.85.1Z"/>
                <path class="cls-10" d="m506.6,187.06c2.33-3.81,5.82-6.51,9.67-8.35,1.95-.93,3.99-1.69,6.06-2.09.25-.05.5-.09.75-.14-.21-.3-.43-.6-.65-.91-.28.03-.57.06-.85.1-2.02.26-4.01.85-5.91,1.6-3.74,1.49-6.8,4.03-9.32,7.25-2.87,3.68-3.38,8.38-3.9,11.78.09.45.81-1.21.95-.76.62-2.94,1.56-5.81,3.19-8.48Z"/>
                <path class="cls-19" d="m469.36,216.67c-.16-.7-.17-1.41.07-2.14.55-1.66,1.73-2.94,2.75-4.31,1.46-1.95.76-1.2,2.59-2.83,1.64-1.47,4.02-2.72,5.33-.19.48.93.75,1.93.98,2.95,1-.5,1.95-1.08,2.46-2.06.51-.98.49-2.07.99-3.01-1.27-7.17-2.89-14.21-5.14-21.21-.21-.66-.42-1.33-.61-2-5.15,5.38-9.55,10.15-10.9,12.03-3.42,4.76-11.79,17.8-7.96,21.04,3.41,2.88,6.86,3.22,9.44,1.72Z"/>
                <path class="cls-10" d="m479.22,186.67c2.1,6.51,3.64,13.05,4.87,19.71.11-.44.22-.88.44-1.29-1.27-7.17-2.89-14.21-5.14-21.21-.21-.66-.42-1.33-.61-2-.33.35-.66.7-.99,1.04.69,1.79,1.34,3.46,1.44,3.76Z"/>
                <path class="cls-19" d="m485.02,182.3c3.03,1.52,5.99,1.99,9.21.7,2.62-1.05,4.95-2.61,7.24-4.23,3.53-2.51,7.24-5.43,11.37-6.86,2.35-.81,4.58-.84,6.68-.18-2.06-2.61-4.32-5.19-6.53-7.27-5.78-5.43-8.24-8.75-13.59-3.54-2.97,2.89-11.31,11.28-18.73,18.98,1.43.85,2.86,1.68,4.34,2.42Z"/>
                <path class="cls-10" d="m512.27,170.95c-4.25,1.43-8.04,4.4-11.66,6.94-2.34,1.65-4.74,3.23-7.42,4.28-3.31,1.29-6.37.78-9.51-.81-.98-.5-1.93-1.03-2.89-1.58-.04.04-.07.07-.11.11,1.43.85,2.86,1.68,4.34,2.42,3.03,1.52,5.99,1.99,9.21.7,2.62-1.05,4.95-2.61,7.24-4.23,3.53-2.51,7.24-5.43,11.37-6.86,2.35-.81,4.58-.84,6.68-.18-.27-.34-.54-.68-.82-1.02-2.04-.56-4.2-.51-6.44.24Z"/>
                <path class="cls-28" d="m463.93,217.21c-.09-5.48,6.39-15.1,9.48-19.24,3.6-4.82,27.33-28.23,32.9-33.51,1.54-1.46,2.84-2.26,4.04-2.54-4.03-3.78-6.48-5.35-10.93-1.02-5.35,5.2-28.12,28.25-31.54,33-3.42,4.76-11.79,17.8-7.96,21.04,1.35,1.14,2.7,1.88,4.01,2.26Z"/>
                <path class="cls-11" d="m469.79,194.21c.29.4.59.81.88,1.21,0,0,0,0,0,0,3.67-4.73,27.83-27.65,33.49-32.82,1.57-1.43,2.88-2.21,4.09-2.48-.44-.41-1.5-1.06-1.5-1.06-1.1.34-2.05,1.01-3.44,2.28-5.67,5.17-29.82,28.09-33.49,32.82-.01.02-.03.04-.04.05Z"/>
                <path class="cls-11" d="m473.62,194.45c.96-2.32.07-4.29-1.01-6.26-2.32,2.52-4.08,4.53-4.86,5.61-3.42,4.76-11.79,17.8-7.96,21.04,1.06.89,2.11,1.53,3.15,1.95.08-8.79,10.04-20.81,10.67-22.34Z"/>
                <path class="cls-8" d="m496.67,196.23c-.09-3.58.54-8.36.72-10.6.18-2.24-13.29,1.65-12.72,5.11.56,3.46,2.8,9.35,2.8,9.35l9.2-3.86Z"/>
                <path class="cls-8" d="m519.15,195.01c1.75-3.28,5.22-10.07,4.2-11.86-1.02-1.8-6.02-3.85-8.98-.19-2.96,3.66-5.7,11.57-3.35,12.28s6.86,2.15,8.12-.23Z"/>
                <path class="cls-12" d="m514.04,200.76c-1.01-.4-1.63-1.23-1.38-1.87.25-.64,1.27-.83,2.28-.43s1.63,1.23,1.38,1.87c-.25.64-1.27.83-2.28.43Z"/>
                <path class="cls-12" d="m508.48,198.88c-1.01-.4-1.63-1.23-1.38-1.87.25-.64,1.27-.83,2.28-.43s1.63,1.23,1.38,1.87c-.25.64-1.27.83-2.28.43Z"/>
                <path class="cls-12" d="m500.51,196.9c-.85-.05-1.51-.53-1.48-1.06.03-.53.75-.92,1.59-.87.85.05,1.51.53,1.48,1.06-.03.53-.75.92-1.59.87Z"/>
                <path class="cls-12" d="m495.8,199.43c-.83.2-1.6-.05-1.73-.57-.13-.52.44-1.1,1.26-1.31.83-.2,1.6.05,1.73.57.13.52-.44,1.1-1.26,1.31Z"/>
                <path class="cls-12" d="m490.78,201.54c-.78.33-1.58.2-1.79-.29-.21-.49.26-1.16,1.04-1.49.78-.33,1.58-.2,1.79.29.21.49-.26,1.16-1.04,1.49Z"/>
                <path class="cls-12" d="m486.7,203.16c-.78.33-1.58.2-1.79-.29-.21-.49.26-1.16,1.04-1.49.78-.33,1.58-.2,1.79.29s-.26,1.16-1.04,1.49Z"/>
                <path class="cls-11" d="m524.87,183.56c.41.72-3.05,6.54-5.53,12.89-1.73,4.42-2.73,9.28-3.8,11.21.58-.02,1.05-.09,1.37-.21,1.39-.55,2.43-6.63,4.54-12.03,2.48-6.35,5.94-12.16,5.53-12.89-.65-1.16-1.68-2.79-2.94-4.65.04,2.45.17,4.51.83,5.69Z"/>
                <path class="cls-8" d="m510.94,207.91c-.29-.1-.46-.36-.38-.57l2.67-8.18c.08-.22.37-.31.66-.21l1.3.46c.29.1.46.36.38.57l-2.67,8.18c-.08.22-.37.31-.66.21l-1.3-.46Z"/>
                <path class="cls-8" d="m505.83,207.28c-.29-.08-.49-.32-.43-.54l2.18-9.58c.06-.22.34-.34.64-.26l1.33.34c.29.08.49.32.43.54l-2.18,9.58c-.06.22-.34.34-.64.26l-1.33-.34Z"/>
                <path class="cls-8" d="m499.69,206.16c-.3-.01-.54-.21-.53-.44l.2-9.82c.01-.23.27-.4.57-.39l1.38.07c.3.01.54.21.53.44l-.2,9.82c-.01.23-.27.4-.57.39l-1.38-.07Z"/>
                <path class="cls-8" d="m495.39,205.47c-.3.02-.56-.14-.58-.37l-.54-6.41c-.02-.23.22-.43.52-.45l1.37-.1c.3-.02.56.14.58.37l.54,6.41c.02.23-.22.43-.52.45l-1.37.1Z"/>
                <path class="cls-8" d="m491.99,206.61c-.29.1-.58.01-.66-.2l-2.02-5.38c-.08-.22.09-.47.38-.57l1.3-.46c.29-.1.58-.01.66.2l2.02,5.38c.08.22-.09.47-.38.57l-1.3.46Z"/>
                <path class="cls-8" d="m488.32,208.12c-.28.13-.58.06-.67-.15l-2.48-5.18c-.09-.21.05-.48.33-.61l1.25-.57c.28-.13.58-.06.67.15l2.48,5.18c.09.21-.05.48-.33.61l-1.25.57Z"/>
                <path class="cls-12" d="m482.43,205.52c-.7.48-1.51.52-1.81.07-.3-.44.02-1.19.72-1.67.7-.48,1.51-.52,1.81-.07.3.44-.02,1.19-.72,1.67Z"/>
                <path class="cls-8" d="m484.53,210.26c-.26.15-.57.11-.68-.08l-2.94-4.94c-.11-.2,0-.48.27-.63l1.19-.69c.26-.15.57-.11.68.08l2.94,4.94c.11.2,0,.48-.27.63l-1.19.69Z"/>
              </g>
              <g>
                <path class="cls-7" d="m494.01,188.97c.07.05.13.1.2.14.27.17.54.2.82.05.3-.16.38-.46.35-.74-.04-.4-.18-.79-.53-1.04-.29-.21-.69-.16-.89.13-.06.08-.07.23-.05.33.03.16.11.31.18.49l-.41.16c-.01-.07-.02-.14-.04-.2-.08-.22-.22-.43-.03-.67.24-.31.52-.54.93-.56.62-.03,1.08.38,1.23,1.1.1.46-.22,1.01-.72,1.19-.32.12-.64.1-.94-.08-.08-.05-.12-.16-.18-.25.03-.02.06-.04.08-.06Z"/>
                <path class="cls-7" d="m487.27,190.49c.01-.15-.02-.32.04-.45.2-.44.71-.68,1.23-.62.45.05.81.45.94,1.02.1.43-.08.89-.46,1.14-.3.2-.63.22-.97.17-.21-.03-.36-.15-.36-.46.09.06.15.1.22.14.27.18.56.25.86.07.29-.17.41-.45.33-.76-.08-.3-.18-.61-.35-.86-.33-.46-1.02-.32-1.24.22-.05.13-.09.27-.14.4-.03,0-.07,0-.1-.01Z"/>
                <path class="cls-7" d="m489.44,189.67c-.17-.16-.16-.3-.05-.47.28-.45.81-.68,1.29-.55.5.14.88.7.88,1.26,0,.82-.85,1.24-1.56,1.01-.12-.04-.19-.25-.29-.38.02-.01.04-.03.06-.04.13.08.25.18.39.25.38.19.85,0,.98-.4.15-.45-.09-1.12-.49-1.38-.42-.26-.88-.12-1.08.34-.05.11-.08.22-.13.36Z"/>
                <path class="cls-7" d="m492.13,190.37c-.2-.52-.36-.93-.51-1.35-.18-.49-.02-.9.4-1.06.49-.2.9-.03,1.12.46.1.21.17.43.25.65.08.21.16.43.25.65l-.32.12c-.17-.43-.33-.86-.5-1.29-.15-.39-.42-.51-.77-.38-.32.12-.45.44-.32.8.14.38.3.76.44,1.15.02.05-.02.13-.05.25Z"/>
                <path class="cls-7" d="m487.55,192.06l-.36.14c-.26-.68-.51-1.34-.77-2.02l.36-.14.77,2.02Z"/>
              </g>
            </g>
            <path class="cls-18" d="m509.33,166.14c.07.02.14.05.22.07.28.07.53.03.74-.19.22-.22.21-.51.1-.75-.15-.34-.38-.64-.76-.77-.31-.1-.65.05-.75.36-.03.09,0,.22.05.31.07.13.18.24.29.38l-.32.25c-.03-.05-.05-.12-.09-.17-.14-.17-.32-.32-.21-.59.13-.34.31-.62.67-.75.54-.2,1.06.04,1.39.63.21.38.08.95-.3,1.25-.25.2-.54.27-.85.19-.08-.02-.15-.11-.23-.17.02-.02.04-.05.06-.07Z"/>
            <path class="cls-18" d="m503.79,169.36c-.03-.14-.11-.28-.09-.41.05-.44.44-.8.92-.89.41-.08.84.17,1.12.64.21.35.17.81-.09,1.13-.21.26-.5.37-.81.42-.19.03-.36-.03-.44-.3.09.03.16.05.23.07.29.09.56.06.78-.18.21-.23.24-.51.08-.77-.15-.24-.33-.49-.55-.66-.42-.31-.99,0-1.04.54-.01.13,0,.26-.01.39-.03,0-.06.01-.09.02Z"/>
            <path class="cls-18" d="m505.48,168.02c-.2-.09-.22-.22-.18-.4.12-.48.53-.83.99-.84.49-.01.97.37,1.13.87.23.73-.4,1.33-1.1,1.33-.12,0-.24-.17-.36-.26.01-.02.03-.04.04-.05.14.04.27.09.41.11.39.06.75-.24.76-.63,0-.44-.39-.97-.82-1.08-.44-.12-.81.14-.86.6-.01.11,0,.22-.01.35Z"/>
            <path class="cls-18" d="m508.05,167.9c-.32-.4-.58-.72-.83-1.05-.29-.38-.27-.79.06-1.05.38-.31.79-.28,1.12.09.14.16.27.34.4.5.13.17.26.33.4.51l-.25.2c-.27-.34-.53-.67-.8-1-.24-.3-.51-.34-.79-.12-.25.2-.28.51-.06.8.23.3.48.59.71.89.03.04.01.12.03.23Z"/>
          </g>
          <path class="cls-3" d="m638.99,169.17c.26.22.66.19.89-.07l2.45-2.85c.23-.26.2-.64-.06-.87-.26-.23-.66-.2-.89.05l-2.45,2.85c-.23.26-.2.66.05.89Zm4.05-4.68c.26.23.66.2.89-.05l2.45-2.85c.23-.26.2-.66-.05-.89-.26-.22-.66-.19-.89.07l-2.45,2.85c-.23.26-.2.64.06.87Z"/>
          <g>
            <g>
              <path class="cls-30" d="m495.46,159.03c2.65-5.68,4.79-6.62,11.63-5.92,4.66.48,4.86,4.04,10.53,6.51,4.65,2.03,4.75,1.82,11.78,2.34,1.61.12,5.26.48,6.74.46,1.63-2.03,3.53-3.86,5.61-5.5,2.52-1.96,5.32-3.63,8.33-4.95,2.94-1.31,6.04-2.29,9.26-2.91,5.43-1.06,11.14-1.12,16.68-.03,14.96,2.94,28.33,13.84,34.18,26.92,5.06,11.32,5.1,18.01,2.24,23.31-2.03,3.78-5.51,6.86-9.7,10.4-1.24,1.04-2.53,2.14-3.87,3.3-4.39,3.8-8.86,7.94-13.69,11.23-3.09,2.11-6.31,3.88-9.74,4.97-3.55,1.15-7.32,1.58-11.4.98-1.16-.18-2.55-.57-4.09-1.17-5.88-2.26-14.45-6.96-22.3-13.71-18.42-15.83-15.82-23.31-27.5-32.01"/>
              <path class="cls-24" d="m534.45,201.95c-.85-1.24-2.41-1.64-3.14.26-.52,1.33.24,3.62,1.85,3.86,1.02.16,1.73-.89,1.85-1.9.1-.83-.15-1.63-.56-2.23Z"/>
              <path class="cls-24" d="m540.75,174.24c-1.26-.9-2.85-.77-2.78,1.28.04,1.43,1.63,3.36,3.2,3.07,1-.19,1.24-1.41.96-2.41-.23-.82-.77-1.5-1.38-1.94Z"/>
              <path class="cls-23" d="m574.48,195.13c-1.3.78-1.71,2.22.5,3.49,2.33,1.34,6.42.45,4.88-2.26-1.22-2.13-3.88-2.12-5.37-1.23Z"/>
              <path class="cls-25" d="m567.7,193.25c.13.71-.38,1.39-1.96,1.54-.98.09-2.08-.43-2.49-1.21-.41-.78-.04-1.74.84-2.05,1.67-.58,3.41.61,3.61,1.72Z"/>
              <path class="cls-23" d="m599.08,184.07c1.39.13,2.47-.69,1.33-2.23-.79-1.08-2.97-1.86-3.95-.93-.62.59-.15,1.65.59,2.29.61.53,1.35.81,2.02.87Z"/>
              <path class="cls-22" d="m602.73,209.66c-1.02-.82-2.13-1.56-3.26-2.19-3.4-1.93-7.15-3.35-10.22-5.71-4.4-3.4-7.02-8.46-11.57-11.67-5.36-3.77-12.61-4.41-18.04-8.09-.94-.63-1.91-1.66-1.51-2.62.3-.7,1.19-.98,2-1.14,8.54-1.63,17.32,2.34,25.26,6.19,9.21,4.46,18.77,8.89,27.03,14.83-2.03,3.78-5.51,6.86-9.7,10.4Z"/>
              <path class="cls-22" d="m567.78,162.65c-1.62-1.93-2.99-4.02-4.77-5.82-4.23-4.25-8.44-4.42-12.93-4.86,2.94-1.31,6.04-2.29,9.26-2.91,2.89,1.8,5.74,3.61,8.5,5.37,5.63,3.56,18.13,10.47,19.36,17.24,1.88,10.38-16.74-5.85-19.41-9.02Z"/>
              <path class="cls-27" d="m585.17,224.19c-3.09,2.11-6.31,3.88-9.74,4.97-.64-1.34-1.14-2.74-1.58-4.13-1.34-4.21-2.26-8.63-4.89-12.33-1.8-2.56-3.63-1.81-5.57-4.28-1.95-2.47.36-6.52-3-11.26-.13-3.42,6.5,2.34,8.48,6.29,2.25,4.51,6.3,6.15,8.7,10.6,1.99,3.67,4.56,7.09,7.61,10.13Z"/>
              <path class="cls-27" d="m559.94,228.97c-5.88-2.26-14.14-7.34-22.3-13.71.97-3.94,6.09-3.58,3.68-7.11-1.6-2.34.52-6.25.79-7.54.27-1.3-1.86-3.88-.45-4.1,1.34-.21,2.74.6,3.55,1.67.79,1.06,1.14,2.34,1.47,3.58,1.06,3.99,2.19,8.02,4.34,11.65.99,1.71,2.21,3.3,3.27,4.97,1.52,2.37,4.17,6.66,5.64,10.59Z"/>
              <path class="cls-27" d="m551.86,182.47c-5.71-4.31-8.65-15.12-15.72-20.04,1.63-2.03,3.53-3.86,5.61-5.5.81.68,1.56,3.26,2.37,3.96,1.78,1.55,2.17,2.38,4.29,3.52,4.25,2.28.41,5.92.45,7.05.14,3.65,1.16,3.66,3.19,6.88,2.43,3.27.71,4.81-.19,4.13Z"/>
            </g>
            <path class="cls-20" d="m621.05,115.04c-.75,3.72,1.72,41.26,2.92,46.25,1.2,4.99,36.8,10.04,39.4,8.98,1.88-.77,3.87-7.68,7.2-7.84,3.33-.16,3.48,7.63,4.91,7.2,2.24-.69.16-7.15.16-7.15,0,0,2.81,4.59,3.9,3.85,1.89-1.28-1.36-9.85-3.52-11.78-2.16-1.93-7.79-1.52-9.15-1.22-1.37.29-6.93,8.81-6.93,8.81,0,0-24.85-8.09-25.39-8.66-.54-.57,1.38-29.5,2.52-35.71,1.35-7.37-13.07-17.32-16.01-2.73Z"/>
            <path class="cls-31" d="m707.81,86.39s13.66-13.98,20.36-7.07c6.7,6.91-1.06,27.02-8.83,28.11l-11.53-21.04Z"/>
            <path class="cls-31" d="m610.83,50.54s-14.72-4.55-28.91,9.95c-24.96,25.48,3.23,57.3-86.04,41.46-52.22-9.27-48.15-34.89-80.52-51.5-8.26-4.24-17.04-7.55-25.17-9.87-23.67-6.84-44.04.29-25.01,4.58,49.49,11.15,32.98,30.26,53.1,73.83,6.82,14.78,19.6,23.09,27.44,29.76,37.72,32.09,76.84,41.71,111.19,47.12,66.07,10.4,56.2-62.53,75.08-68.1,0,0,58.15,23.4,69.03,13.49,2.09-1.9,4.37-4.82,6.63-8.35,9.53-14.85,18.66-40.43,11.39-45.53-9.01-6.33-14.4-5.98-14.4-5.98,0,0-.93-12.25-10.46-16.21-9.54-3.96-16.55,8.34-19.59,6.3-16.45-10.96-63.73-20.95-63.73-20.95"/>
            <path class="cls-16" d="m701.01,141.26c-11.92,10-68.64-13.4-68.64-13.4-24.67,11.51-1.04,79.47-78.6,73.73-34.68-2.57-70.34-20.74-108.05-52.84v-.02c91.97,28.7,137.7-24.35,147.99-45.66,10.27-21.32,26.66-12.34,26.66-12.34,3.96,1.2,9.78,3.72,16.44,6.78,3.73,1.71,7.74,3.58,11.84,5.48.95.45,1.91.9,2.86,1.33,3.89,1.8,7.82,3.57,11.65,5.23,8.93,3.89,17.28,7.08,23.15,8.07,16.43,2.76,24.9,2.56,33.05-10.19-2.26,3.53-4.91,22.58-18.33,33.83Z"/>
            <path class="cls-29" d="m618.55,46.02c-2.81,8.38,1.1,17.14,8.74,19.58,7.64,2.44,16.12-2.37,18.93-10.75,2.81-8.38-1.1-17.14-8.74-19.58-7.64-2.44-16.12,2.37-18.93,10.75Z"/>
            <path class="cls-26" d="m621.03,48.09c-2.23,6.64.87,13.59,6.93,15.52,6.06,1.93,12.78-1.88,15.01-8.52,2.23-6.64-.87-13.59-6.93-15.52-6.06-1.93-12.78,1.88-15.01,8.52Z"/>
            <path class="cls-29" d="m637.81,48.76c-.79,2.34.31,4.79,2.44,5.47s4.5-.66,5.29-3c.79-2.34-.31-4.79-2.44-5.47-2.13-.68-4.5.66-5.29,3Z"/>
            <path class="cls-31" d="m628.95,72.55s4.5-21.17-19.05-21.81c0,0-4.57,21.15,19.05,21.81Z"/>
            <path class="cls-24" d="m622.46,66.33c2.29-3-7.23-10.5-10.24-7.48-3.01,3.03,7.03,11.69,10.24,7.48Z"/>
            <g>
              <path class="cls-32" d="m419.72,172.81c.77-6.76.35-4.72,1.78-11.63,1.44-6.91,1.92-10.54,8.96-12.09,4.8-1.06,8.17-1.28,13.42-.44,5.03.8,9.33,1.68,14.89,3.38,1.56.47,3.04.95,4.37,1.43,1.2-2.7,2.71-5.28,4.45-7.72,2.11-2.93,4.57-5.64,7.31-8.05,2.67-2.37,5.59-4.46,8.69-6.2,5.24-2.95,10.98-4.93,16.79-5.64,15.7-1.91,31.54,5.16,40.28,17.06,7.56,10.3,9.06,17.38,7.33,23.96-1.22,4.69-4.05,9.13-7.5,14.29-1.02,1.52-2.08,3.12-3.18,4.8-3.59,5.51-7.2,11.4-11.34,16.51-2.65,3.27-5.51,6.23-8.73,8.55-3.33,2.41-7.03,4.14-11.26,4.87-1.21.2-2.69.25-4.37.13-6.41-.42-15.83-3.03-25.44-7.05-15.61-6.54-29.35-23.85-33.45-34.43"/>
              <path class="cls-17" d="m470.04,195.94c-1.12-1.03-2.78-.93-3.11,1.33-.23,1.58,1.03,3.76,2.7,3.47,1.07-.18,1.55-1.53,1.45-2.63-.08-.91-.5-1.68-1.04-2.17Z"/>
              <path class="cls-17" d="m470.35,164.43c-1.46-.53-3.03.14-2.53,2.29.36,1.5,2.37,3.02,3.89,2.18.97-.54.94-1.92.44-2.88-.41-.79-1.1-1.33-1.81-1.59Z"/>
              <path class="cls-17" d="m508.87,175.25c-1.14,1.26-1.24,2.93,1.26,3.53,2.64.64,6.57-1.68,4.42-4.04-1.69-1.85-4.37-.94-5.68.5Z"/>
              <path class="cls-17" d="m501.63,175.53c.29.71-.08,1.61-1.64,2.29-.96.42-2.18.24-2.77-.45-.59-.69-.42-1.83.4-2.45,1.56-1.18,3.57-.5,4.01.61Z"/>
              <path class="cls-17" d="m531.23,155.25c1.43-.33,2.33-1.56.86-2.82-1.04-.88-3.39-.97-4.17.34-.5.84.21,1.8,1.09,2.23.72.36,1.54.41,2.23.24Z"/>
              <path class="cls-24" d="m540.48,181.16c-1.2-.53-2.48-.94-3.76-1.23-3.85-.9-7.93-1.15-11.53-2.62-5.17-2.13-8.91-6.61-14.19-8.48-6.22-2.19-13.66-.44-19.92-2.51-1.09-.36-2.28-1.12-2.09-2.27.15-.84.98-1.44,1.76-1.88,8.24-4.6,17.95-3.34,26.79-1.93,10.24,1.63,20.83,3.12,30.44,6.64-1.22,4.69-4.05,9.13-7.5,14.29Z"/>
              <path class="cls-24" d="m495.05,143.06c-2.05-1.5-3.88-3.26-6.07-4.56-5.19-3.09-9.46-1.85-14.08-.81,2.67-2.37,5.59-4.46,8.69-6.2,3.3.94,6.56,1.9,9.73,2.83,6.45,1.88,20.54,5.01,23.25,11.78,4.16,10.38-18.13-.58-21.51-3.04Z"/>
              <path class="cls-24" d="m525.96,202.47c-2.65,3.27-5.51,6.23-8.73,8.55-.93-1.21-1.74-2.52-2.49-3.84-2.26-4.02-4.15-8.39-7.61-11.43-2.37-2.1-4.05-.7-6.54-2.67-2.5-1.96-1.06-7.04-5.48-10.93-.87-3.58,7.06.3,9.9,3.83,3.25,4.03,7.68,4.41,11.07,8.31,2.8,3.22,6.14,5.99,9.86,8.18Z"/>
              <path class="cls-24" d="m501.59,216.03c-6.41-.42-15.83-3.03-25.44-7.05.12-4.5,5.35-5.85,2.16-8.77-2.12-1.94-.83-6.81-.84-8.26,0-1.47-2.72-3.49-1.34-4.2,1.31-.67,2.89-.28,3.93.58,1.03.86,1.65,2.1,2.26,3.3,1.93,3.87,3.95,7.76,6.91,10.9,1.37,1.47,2.94,2.75,4.37,4.17,2.05,2,5.65,5.66,7.99,9.33Z"/>
              <path class="cls-24" d="m483.33,169.43c-6.69-2.65-12-13.13-20.19-15.97,1.2-2.7,2.71-5.28,4.45-7.72.97.45,2.29,2.93,3.25,3.4,2.13,1.04,2.7,1.79,5.09,2.29,4.78.99,1.7,6.14,1.99,7.33.94,3.82,1.96,3.49,4.71,6.23,3.16,2.66,1.76,4.86.71,4.45Z"/>
            </g>
            <path class="cls-29" d="m651.71,55.81c-2.81,8.38,1.1,17.14,8.74,19.58,7.64,2.44,16.12-2.37,18.93-10.75,2.81-8.38-1.1-17.14-8.74-19.58-7.64-2.44-16.12,2.37-18.93,10.75Z"/>
            <path class="cls-26" d="m654.19,57.87c-2.23,6.64.87,13.59,6.93,15.52,6.06,1.93,12.78-1.88,15.01-8.52,2.23-6.64-.87-13.59-6.93-15.52-6.06-1.93-12.78,1.88-15.01,8.52Z"/>
            <path class="cls-29" d="m670.97,58.54c-.79,2.34.31,4.79,2.44,5.47s4.5-.66,5.29-3c.79-2.34-.31-4.79-2.44-5.47-2.13-.68-4.5.66-5.29,3Z"/>
            <path class="cls-26" d="m693.9,72.93c-6.56.16-6.56,14.35-1.62,14.91,4.93.56,6.35-15.03,1.62-14.91Z"/>
            <path class="cls-26" d="m722.95,85c4.52,4.76-5.54,14.77-9.42,11.67-3.88-3.1,6.17-15.1,9.42-11.67Z"/>
            <path class="cls-31" d="m653.74,76.39s10.41-16.25,29.79-3.18c0,0-10.35,16.27-29.79,3.18Z"/>
            <path class="cls-24" d="m663.37,75.81c-.02-3.74,12.2-4.29,12.79-.12.59,4.18-12.77,5.37-12.79.12Z"/>
            <path class="cls-24" d="m550.37,102.35c-1.45,2.49-.69,4.98,4.39,4.43,5.36-.58,11.5-6.21,6.09-8.41-4.25-1.73-8.82,1.13-10.48,3.99Z"/>
            <path class="cls-24" d="m546.34,105.19c.71,1,.16,2.33-2.79,3.51-1.82.73-4.28.62-5.57-.31-1.3-.93-1.2-2.6.3-3.6,2.84-1.89,6.96-1.15,8.06.39Z"/>
            <path class="cls-24" d="m596.82,72.67c.84.22,1.34,1.15.75,3.01-.36,1.15-1.44,2.12-2.48,2.18-1.04.06-1.91-.86-1.83-2.01.15-2.19,2.26-3.53,3.56-3.18Z"/>
            <path class="cls-24" d="m452.55,82.88c-3.87-1.13-6.86.12-3.67,4.4,2.23,3,8.3,6.12,11.01,4.53,1.72-1.01.37-3.75-1.68-5.68-1.7-1.59-3.78-2.7-5.66-3.25Z"/>
            <path class="cls-24" d="m437.17,79.06c3.03,1.02,5.58.08,3.45-3.49-1.49-2.5-6.08-5.2-8.45-3.98-1.51.78-.71,3.05.76,4.67,1.21,1.34,2.78,2.3,4.25,2.79Z"/>
            <path class="cls-29" d="m648.64,102.99c-2.44,3.62-8.06,11.38-10.9,10.62-2.49-.67-1.32-12.71-.94-16.1,3.73,1.71,7.74,3.58,11.84,5.48Z"/>
            <path class="cls-29" d="m663.14,109.55c-2.6,3.99-8.17,11.91-10.93,11.18-2.35-.64-1.22-12.14-.71-16.41,3.89,1.8,7.82,3.57,11.65,5.23Z"/>
          </g>
          <g>
            <path class="cls-3" d="m555.49,149.57l-3.31,3.46c.55.49,1.13.72,1.72.7.58-.01,1.1-.27,1.59-.77.41-.43.64-.93.64-1.52-.01-.58-.22-1.19-.65-1.86Zm6.55-10.05c-.53-.4-1.07-.59-1.61-.55-.53.05-1.05.34-1.54.85-.46.47-.7.96-.74,1.45-.02.5.16,1.05.58,1.69l3.31-3.44Zm-16.21,16.86l2.85-2.96-.08-.08c-1.62-1.55-2.56-3.07-2.79-4.52-.25-1.44.2-2.77,1.36-3.98.65-.68,1.37-1.06,2.14-1.16s1.43.12,1.98.64c.51.49.76,1.08.74,1.78,0,.69-.27,1.3-.79,1.83-.4.42-.81.66-1.25.76-.43.11-.86.04-1.31-.17.05.49.21.97.46,1.4.24.45.59.88,1.03,1.3l.32.3,3.81-3.96c-1.33-2.22-2.01-4.07-2.06-5.53-.04-1.45.53-2.82,1.74-4.07,1.4-1.46,3.01-2.24,4.81-2.33,1.81-.11,3.55.5,5.24,1.82l.62-.64c.15.34.38.67.66.94s.61.48.97.62l-.6.62c1.39,1.47,2.2,2.9,2.38,4.27.19,1.36-.26,2.6-1.31,3.7-.65.68-1.34,1.06-2.09,1.17-.75.1-1.39-.1-1.92-.61s-.75-1.07-.74-1.72c0-.65.24-1.25.73-1.76.29-.31.62-.51.99-.66.39-.13.8-.19,1.24-.18-.07-.38-.2-.74-.41-1.09-.21-.37-.5-.72-.86-1.07l-3.73,3.88c1.37,2.13,2.07,3.98,2.12,5.54.03,1.57-.6,3.04-1.88,4.37-1.48,1.54-3.08,2.3-4.81,2.33s-3.43-.71-5.08-2.21l-2.85,2.96-1.62-1.56h0Z"/>
            <path class="cls-6" d="m555.49,149.57l-.34.35,3.02-8.82c0,.07,0,.12-.02.18-.02.5.16,1.05.58,1.69l.07-.07-2.73,7.97c-.1-.42-.29-.85-.58-1.3h0Zm-1.65,4.16h.07c.49-.01.95-.2,1.36-.56l-1.32,3.86c-.37-.09-.74-.21-1.11-.37l1-2.94Zm2.64-17.55l-3.24,9.42c-.64-1.35-.97-2.54-1-3.55-.04-1.45.53-2.82,1.74-4.07.77-.8,1.6-1.4,2.51-1.79h0Zm-4.89,14.21l-1.71,5.01-2.44,2.53-.92-.88.75-2.18,1.4-1.46-.08-.08c-.2-.2-.41-.39-.59-.59l1.03-3.02c.03.05.06.12.1.19.24.45.59.88,1.03,1.3l.32.3,1.1-1.14Zm-2.21-1.64l1.6-4.67c.1.08.21.16.3.25.51.49.76,1.08.74,1.78,0,.69-.27,1.3-.79,1.83-.4.42-.81.66-1.25.76-.2.05-.41.06-.61.05h0Zm11.81-12.82l-1.06,3.12c-.43.11-.84.37-1.24.79-.22.23-.39.45-.51.69l1.65-4.84c.39.05.78.14,1.16.24h0Zm4.43,2.09l-1.3,3.78c-.2-.26-.41-.5-.65-.73l-1.73,1.8,1.9-5.53c.07.04.11.09.18.13l.62-.64c.15.34.38.67.66.94.1.1.2.17.32.26h0Zm-1.85,5.36l-1.32,3.84c-.32-.42-.47-.89-.46-1.4,0-.65.24-1.25.73-1.76.29-.31.62-.51.99-.66l.07-.02Zm-1.93,5.63l-2.17,6.33c-.81.73-1.65,1.24-2.53,1.55l3.62-10.58c.51.97.88,1.87,1.08,2.7Z"/>
            <path class="cls-5" d="m569.54,133.36c1.21,1.16,1.25,3.09.07,4.31-1.16,1.21-3.09,1.25-4.3.08s-1.26-3.1-.1-4.31c1.17-1.22,3.1-1.26,4.32-.09,0,0,0,0,0,0Zm-.87.9c.71.69.73,1.82.04,2.54s-1.82.73-2.53.05c-.71-.69-.75-1.83-.06-2.54.7-.72,1.84-.73,2.55-.05h0Z"/>
            <path class="cls-4" d="m568.26,130.28l-1.25-.11.23-2.62,1.25.11-.23,2.62Zm.05,1.1l-1.55-.14c-.51-.05-.89-.51-.86-1.02l.27-2.91c.04-.53.5-.91,1.02-.86l1.53.13c.52.06.91.51.86,1.02l-.25,2.92c-.05.51-.51.91-1.02.86Zm.48-7.02l-1.26-.1.24-2.63,1.25.11-.23,2.62Zm.05,1.1l-1.55-.14c-.51-.03-.89-.51-.86-1.02l.27-2.91c.03-.51.49-.9,1.02-.86l1.53.13c.52.06.91.51.86,1.02l-.26,2.93c-.05.51-.51.89-1.01.84h0Z"/>
            <path class="cls-3" d="m567.25,134.38c-.33-.04-.56-.33-.53-.66l.32-3.61c.04-.33.33-.56.66-.53.33.02.58.32.54.64l-.32,3.61c-.04.33-.32.58-.67.55h0Zm.53-5.92c-.33-.02-.57-.31-.54-.64l.32-3.61c.04-.33.33-.57.67-.55.33.04.57.33.54.66l-.32,3.61c-.04.33-.33.56-.66.54h0Z"/>
            <path class="cls-4" d="m568.17,118.02l-1.22.3-.63-2.55,1.22-.3.63,2.55Zm.41,1.02l-1.51.37c-.5.12-1.01-.19-1.14-.69l-.69-2.84c-.13-.51.18-1.02.69-1.14l1.49-.37c.51-.12,1.02.19,1.14.69l.7,2.84c.12.5-.19,1.02-.69,1.14Zm-1.82-6.8l-1.22.31-.63-2.57,1.22-.3.63,2.55Zm.41,1.02l-1.51.37c-.5.13-1.01-.19-1.14-.69l-.69-2.84c-.13-.5.17-1.01.69-1.14l1.49-.37c.51-.12,1.02.19,1.14.69l.7,2.86c.12.5-.19,1.01-.69,1.13h0Z"/>
            <path class="cls-3" d="m568.55,122.22c-.32.07-.63-.13-.72-.45l-.87-3.52c-.07-.32.13-.63.45-.72.32-.08.65.11.72.43l.87,3.52c.07.32-.11.65-.45.74h0Zm-1.41-5.78c-.32.08-.64-.11-.72-.43l-.87-3.52c-.07-.32.13-.65.45-.74.32-.07.65.13.72.45l.87,3.52c.07.32-.13.63-.45.72h0Z"/>
            <path class="cls-4" d="m563.94,106.21l-1.09.63-1.33-2.27,1.09-.63,1.33,2.27Zm.68.87l-1.34.78c-.44.25-1.02.1-1.29-.34l-1.46-2.53c-.27-.46-.12-1.03.34-1.29l1.33-.78c.46-.26,1.04-.11,1.29.34l1.48,2.53c.25.44.11,1.04-.34,1.29Zm-3.67-6.01l-1.08.65-1.33-2.28,1.09-.63,1.33,2.27Zm.68.87l-1.34.78c-.44.27-1.02.1-1.29-.34l-1.46-2.53c-.27-.44-.12-1.02.34-1.29l1.33-.78c.46-.26,1.04-.11,1.29.34l1.48,2.54c.25.44.1,1.02-.34,1.27h0Z"/>
            <path class="cls-3" d="m565.49,110.14c-.29.16-.65.06-.82-.23l-1.83-3.12c-.16-.29-.06-.65.23-.82.28-.17.66-.07.81.21l1.83,3.12c.16.29.07.66-.22.83h0Zm-2.99-5.14c-.28.17-.64.07-.81-.21l-1.83-3.12c-.16-.29-.06-.66.23-.83.29-.16.66-.06.82.23l1.83,3.12c.16.29.06.65-.23.82h0Z"/>
          </g>
          <g>
            <path class="cls-3" d="m633.87,181.23l-1.23,2.98c.47.17.89.17,1.25.02.36-.15.63-.44.81-.88.15-.37.17-.74.03-1.11-.15-.36-.43-.69-.86-1.01Zm1.65-7.91c-.43-.12-.81-.11-1.14.05-.32.16-.57.47-.76.91-.17.41-.21.77-.11,1.09.11.32.36.62.78.92l1.23-2.97Zm-6.05,14.55l1.06-2.56-.07-.03c-1.4-.58-2.36-1.3-2.86-2.15-.51-.84-.55-1.79-.12-2.83.24-.59.6-1,1.06-1.25s.93-.28,1.4-.08c.44.18.75.49.9.94.16.43.15.89-.04,1.34-.15.36-.35.61-.6.78-.24.17-.53.24-.87.21.16.3.37.56.63.77.26.22.59.4.97.56l.27.11,1.42-3.42c-1.38-1.06-2.26-2.06-2.65-2.97-.38-.9-.36-1.9.09-2.98.52-1.26,1.34-2.15,2.45-2.65,1.11-.51,2.35-.56,3.73-.14l.23-.56c.18.18.4.33.65.43s.5.15.76.16l-.22.54c1.23.58,2.09,1.28,2.54,2.1.45.81.47,1.7.08,2.64-.24.59-.58.99-1.02,1.25-.45.25-.89.28-1.35.09s-.74-.49-.89-.9c-.16-.41-.15-.84.03-1.28.11-.26.27-.47.46-.66.21-.18.45-.32.73-.42-.14-.22-.31-.41-.52-.58-.22-.18-.49-.33-.8-.46l-1.39,3.35c1.38,1,2.28,1.99,2.69,2.96.41.98.37,2.05-.11,3.21-.55,1.33-1.37,2.2-2.45,2.65s-2.33.4-3.73-.14l-1.06,2.56-1.4-.58h0Z"/>
            <path class="cls-6" d="m633.87,181.23l-.13.3-.26-6.28s.02.08.03.12c.11.32.36.62.78.92l.02-.06.24,5.67c-.16-.24-.39-.46-.68-.67h0Zm-.02,3.01l.04-.02c.3-.13.55-.36.72-.69l.12,2.75c-.25.03-.51.05-.78.04l-.09-2.09Zm-2.64-11.66l.27,6.71c-.73-.69-1.23-1.36-1.5-1.98-.38-.9-.36-1.9.09-2.98.29-.69.66-1.27,1.13-1.74h0Zm.41,10.12l.16,3.57-.91,2.19-.79-.33-.07-1.55.52-1.26-.07-.03c-.18-.07-.35-.15-.51-.22l-.09-2.14s.07.06.11.09c.26.22.59.4.97.56l.27.11.41-.99Zm-1.79-.49l-.14-3.32c.08.02.17.05.25.08.44.18.75.49.9.94.16.43.15.89-.04,1.34-.15.36-.35.61-.6.78-.11.08-.24.14-.37.18h0Zm4.27-10.94l.1,2.22c-.24.17-.43.44-.58.8-.08.2-.13.38-.15.56l-.15-3.44c.26-.07.52-.1.79-.13h0Zm3.29.22l.11,2.69c-.19-.12-.38-.22-.58-.3l-.64,1.55-.16-3.94c.05.01.09.03.14.04l.23-.56c.18.18.4.33.65.43.09.04.17.06.26.09h0Zm.15,3.82l.11,2.74c-.3-.18-.51-.44-.63-.77-.16-.41-.15-.84.03-1.28.11-.26.27-.47.46-.66l.04-.03Zm.17,4.01l.19,4.51c-.33.65-.73,1.18-1.21,1.59l-.32-7.53c.56.48,1.01.96,1.34,1.43Z"/>
            <path class="cls-5" d="m638.72,167.61c1.04.43,1.54,1.64,1.1,2.69-.43,1.04-1.64,1.54-2.68,1.11s-1.55-1.64-1.12-2.68c.43-1.05,1.64-1.55,2.69-1.12,0,0,0,0,0,0Zm-.32.78c.62.26.91.96.65,1.58s-.96.91-1.58.65-.92-.96-.66-1.58.97-.91,1.59-.66h0Z"/>
            <path class="cls-4" d="m638.55,164.25l-1.3-.1.2-2.73,1.3.1-.2,2.73Zm.07,1.14l-1.61-.12c-.53-.04-.94-.51-.91-1.05l.23-3.03c.03-.55.5-.96,1.05-.91l1.59.12c.54.05.95.52.91,1.05l-.22,3.04c-.04.53-.52.95-1.05.91Zm.39-7.31l-1.31-.08.2-2.74,1.3.1-.2,2.73Zm.07,1.14l-1.61-.12c-.54-.03-.94-.51-.91-1.05l.23-3.03c.03-.54.5-.94,1.05-.91l1.59.12c.54.05.95.52.91,1.05l-.23,3.05c-.04.53-.51.94-1.04.89h0Z"/>
            <path class="cls-3" d="m637.57,168.53c-.34-.03-.59-.33-.57-.68l.27-3.76c.03-.34.33-.59.68-.57.35.02.61.32.57.66l-.27,3.76c-.03.34-.32.61-.68.58h0Zm.46-6.17c-.35-.02-.59-.32-.57-.66l.27-3.76c.03-.34.34-.6.68-.58.34.03.6.34.57.68l-.27,3.76c-.03.34-.33.59-.68.57h0Z"/>
          </g>
          <path class="cls-3" d="m638.49,154.82c.1-.33.44-.51.77-.41l3.6,1.11c.32.11.51.47.41.8-.11.32-.47.51-.79.4l-3.6-1.11c-.32-.11-.5-.46-.4-.79h0Z"/>
          <g>
            <path class="cls-4" d="m572.7,135.09l-.03,1.25,2.63.08.03-1.25-2.63-.08Zm-1.08-.17l-.05,1.54c0,.53.4.96.91.97l2.93.09c.53,0,.96-.4.97-.91l.04-1.55c.01-.51-.4-.95-.91-.97l-2.92-.08c-.52-.03-.96.4-.97.91h0Zm7.03.34l-.05,1.26,2.64.08.03-1.25-2.63-.08Zm-1.08-.17l-.05,1.54c-.02.53.4.96.91.97l2.93.09c.51.01.95-.4.97-.91l.04-1.55c.01-.51-.4-.95-.91-.97l-2.94-.07c-.52-.03-.95.4-.96.91h0Z"/>
            <path class="cls-3" d="m568.51,135.61c0,.33.26.61.6.62l3.62.1c.33.02.6-.24.61-.58.02-.33-.25-.61-.58-.63l-3.62-.1c-.33-.02-.61.25-.63.58Zm5.95.17c-.02.33.25.61.58.63l3.62.1c.33.02.61-.25.63-.58,0-.33-.26-.61-.6-.62l-3.62-.1c-.33-.02-.6.24-.61.58Z"/>
            <path class="cls-4" d="m584.9,136.12l-.25,1.23,2.57.54.25-1.23-2.57-.54Zm-1.04-.35l-.31,1.51c-.1.52.23,1.02.73,1.12l2.86.6c.52.1,1.02-.23,1.12-.73l.31-1.52c.1-.5-.23-1-.73-1.12l-2.86-.58c-.5-.12-1.02.23-1.12.73h0Zm6.86,1.56l-.27,1.23,2.59.54.25-1.23-2.57-.54Zm-1.04-.35l-.31,1.51c-.11.52.23,1.02.73,1.12l2.86.6c.5.1,1-.23,1.12-.73l.31-1.52c.1-.5-.23-1-.73-1.12l-2.88-.58c-.5-.12-1,.23-1.1.73h0Z"/>
            <path class="cls-3" d="m580.69,135.9c-.06.32.15.65.48.72l3.54.73c.32.07.63-.14.7-.46.07-.32-.14-.65-.46-.72l-3.54-.73c-.32-.07-.65.14-.72.46Zm5.82,1.2c-.07.32.14.65.46.72l3.54.73c.32.07.65-.14.72-.46.06-.32-.15-.65-.48-.72l-3.54-.73c-.32-.07-.63.14-.7.46Z"/>
            <path class="cls-4" d="m596.85,138.69l-.25,1.23,2.57.54.25-1.23-2.57-.54Zm-1.04-.35l-.31,1.51c-.1.52.23,1.02.73,1.12l2.86.6c.52.1,1.02-.23,1.12-.73l.31-1.52c.1-.5-.23-1-.73-1.12l-2.86-.58c-.5-.12-1.02.23-1.12.73h0Zm6.86,1.56l-.27,1.23,2.59.54.25-1.23-2.57-.54Zm-1.04-.35l-.31,1.51c-.11.52.23,1.02.73,1.12l2.86.6c.5.1,1-.23,1.12-.73l.31-1.52c.1-.5-.23-1-.73-1.12l-2.88-.58c-.5-.12-1,.23-1.1.73h0Z"/>
            <path class="cls-3" d="m592.64,138.47c-.06.32.15.65.48.72l3.54.73c.32.07.63-.14.7-.46.07-.32-.14-.65-.46-.72l-3.54-.73c-.32-.07-.65.14-.72.46Zm5.82,1.2c-.07.32.14.65.46.72l3.54.73c.32.07.65-.14.72-.46.06-.32-.15-.65-.48-.72l-3.54-.73c-.32-.07-.63.14-.7.46Z"/>
            <path class="cls-4" d="m608.68,141.16l-.25,1.23,2.57.54.25-1.23-2.57-.54Zm-1.04-.35l-.31,1.51c-.1.52.23,1.02.73,1.12l2.86.6c.52.1,1.02-.23,1.12-.73l.31-1.52c.1-.5-.23-1-.73-1.12l-2.86-.58c-.5-.12-1.02.23-1.12.73h0Zm6.86,1.56l-.27,1.23,2.59.54.25-1.23-2.57-.54Zm-1.04-.35l-.31,1.51c-.11.52.23,1.02.73,1.12l2.86.6c.5.1,1-.23,1.12-.73l.31-1.52c.1-.5-.23-1-.73-1.12l-2.88-.58c-.5-.12-1,.23-1.1.73h0Z"/>
            <path class="cls-3" d="m604.47,140.94c-.06.32.15.65.48.72l3.54.73c.32.07.63-.14.7-.46.07-.32-.14-.65-.46-.72l-3.54-.73c-.32-.07-.65.14-.72.46Zm5.82,1.2c-.07.32.14.65.46.72l3.54.73c.32.07.65-.14.72-.46.06-.32-.15-.65-.48-.72l-3.54-.73c-.32-.07-.63.14-.7.46Z"/>
            <path class="cls-4" d="m620.52,143.48l-.25,1.23,2.57.54.25-1.23-2.57-.54Zm-1.04-.35l-.31,1.51c-.1.52.23,1.02.73,1.12l2.86.6c.52.1,1.02-.23,1.12-.73l.31-1.52c.1-.5-.23-1-.73-1.12l-2.86-.58c-.5-.12-1.02.23-1.12.73h0Z"/>
            <path class="cls-3" d="m616.31,143.26c-.06.32.15.65.48.72l3.54.73c.32.07.63-.14.7-.46.07-.32-.14-.65-.46-.72l-3.54-.73c-.32-.07-.65.14-.72.46Zm5.82,1.2c-.07.32.14.65.46.72l3.54.73c.32.07.65-.14.72-.46.06-.32-.15-.65-.48-.72l-3.54-.73c-.32-.07-.63.14-.7.46Z"/>
          </g>
          <path class="cls-15" d="m569.87,97.99c-.75,3.72,1.72,41.26,2.92,46.25,1.2,4.99,36.8,10.04,39.4,8.98,1.88-.77,3.87-7.68,7.2-7.84,3.33-.16,3.48,7.63,4.91,7.2,2.24-.69.16-7.15.16-7.15,0,0,2.81,4.59,3.9,3.85,1.89-1.28-1.36-9.85-3.52-11.78-2.16-1.93-7.79-1.52-9.15-1.22-1.37.29-6.93,8.81-6.93,8.81,0,0-24.85-8.09-25.39-8.66-.54-.57,1.38-29.5,2.52-35.71,1.35-7.37-13.07-17.32-16.01-2.73Z"/>
          <g>
            <g>
              <path class="cls-11" d="m447.07,151.65c-2.41-3.87-9.16-12.86-15.45-18.28-6.29-5.43-9.59-9.19-14.96-3.51-5.36,5.68-28.01,31.1-31.37,36.23-3.37,5.13-11.1,19.29-6.94,22.51,4.16,3.22,8.23,3.08,10.9.66,2.66-2.42,8.03-4.02,11.93-6.07s13.12-7.62,14.84-7.3c1.72.32,18.52,3.67,21.64,2.29,1.44-.63,2.24-7.04,4.21-12.79,2.31-6.75,5.66-12.99,5.21-13.73Z"/>
              <path class="cls-21" d="m389.25,189.25c1.88-1.7,3.95-1.91,7.65-4.15.12-.66.58-.81,1.32-1.31,1.52-1.02,3.73-1.66,4.56-3.43.54-1.16.38-2.45,1.08-3.53.84-1.32,2.82-2.14,4.18-2.78,1.6-.75,3.25-1.36,4.93-1.92,1.89-.62,4.18-1.08,5.88-2.13,2.12-1.31,3.71-4.55,4.12-6.82.06-.32.56-.29.63,0,.42,1.9-.16,4.99,1.43,6.28,1.33,1.08,2.97,1.58,4.63,1.89,3.3.62,6.75,1.46,10.14,1.5.57-2.25,1.22-4.93,2.09-7.49,2.31-6.75,5.66-12.99,5.21-13.73-2.41-3.87-9.16-12.86-15.45-18.28-6.29-5.43-9.01-8.78-14.38-3.1-5.36,5.68-28.15,30.82-31.52,35.95-3.37,5.13-11.54,19.16-7.38,22.38,4.16,3.22,8.23,3.08,10.9.66Z"/>
              <path class="cls-8" d="m398.21,183.8c.46-.31.98-.58,1.51-.87-.12-.42-.24-.84-.38-1.25-.33-.92-.79-2.37-1.78-2.82-1.47-.66-3.09,1.06-3.96,2.02-1.7,1.87-.92.96-2.39,2.99-.83,1.15-1.83,2.37-2.23,3.76-.19.65-.19,1.28-.08,1.88.11-.09.2-.22.34-.28,2.57-1.22,3.95-1.91,7.65-4.15.12-.66.58-.81,1.32-1.31Z"/>
              <path class="cls-19" d="m441.12,144.73c-2.11.36-4.58,1.85-6.53,2.73-3.84,1.73-6.83,4.52-8.98,8.22-1.86,3.18-2.64,5.67-3.03,9.25.42,1.69,1.06,3.43,2.44,4.55,1.33,1.08,2.97,1.58,4.63,1.89,3.3.62,6.75,1.46,10.14,1.5.57-2.25,1.22-4.93,2.09-7.49,2.31-6.75,5.66-12.99,5.21-13.73-1.03-1.65-2.84-4.22-5.07-7.06-.3.04-.59.09-.89.14Z"/>
              <path class="cls-10" d="m425.95,157.32c2.26-4.1,5.8-7.08,9.74-9.17,2-1.06,4.1-1.95,6.25-2.46.26-.06.52-.12.78-.18-.23-.3-.47-.61-.72-.92-.3.04-.59.09-.89.14-2.11.36-4.16,1.07-6.11,1.94-3.84,1.73-6.94,4.52-9.42,8-2.84,3.98-3.16,8.93-3.55,12.5.12.47.8-1.31.96-.84.52-3.11,1.37-6.15,2.95-9.01Z"/>
              <path class="cls-19" d="m388.31,189.97c-.2-.72-.24-1.47-.02-2.24.5-1.76,1.68-3.15,2.69-4.64,1.44-2.11.74-1.29,2.58-3.08,1.65-1.61,4.09-3.03,5.57-.43.54.95.87,1.99,1.16,3.05,1.03-.57,2-1.22,2.49-2.26.49-1.04.41-2.19.9-3.2-1.65-7.45-3.66-14.74-6.33-21.96-.25-.69-.49-1.38-.73-2.07-5.14,5.86-9.53,11.05-10.87,13.08-3.37,5.13-11.54,19.16-7.38,22.38,3.69,2.86,7.32,3.06,9.95,1.37Z"/>
              <path class="cls-10" d="m397.28,158.14c2.49,6.71,4.39,13.5,5.98,20.4.09-.47.2-.93.41-1.37-1.65-7.45-3.66-14.74-6.33-21.96-.25-.69-.49-1.38-.73-2.07-.33.38-.66.76-.99,1.13.81,1.84,1.56,3.56,1.67,3.87Z"/>
              <path class="cls-19" d="m403.16,153.31c3.24,1.45,6.36,1.81,9.67.32,2.69-1.21,5.06-2.95,7.38-4.76,3.58-2.78,7.33-6,11.59-7.69,2.42-.96,4.75-1.08,6.98-.49-2.27-2.64-4.75-5.24-7.16-7.32-6.29-5.43-9.01-8.78-14.38-3.1-2.98,3.15-11.33,12.31-18.74,20.7,1.53.82,3.07,1.63,4.65,2.34Z"/>
              <path class="cls-10" d="m431.16,140.2c-4.38,1.69-8.22,4.96-11.89,7.79-2.38,1.83-4.81,3.6-7.57,4.82-3.4,1.5-6.63,1.1-9.99-.42-1.04-.47-2.07-.99-3.09-1.53-.04.04-.07.08-.11.12,1.53.82,3.07,1.63,4.65,2.34,3.24,1.45,6.36,1.81,9.67.32,2.69-1.21,5.06-2.95,7.38-4.76,3.58-2.78,7.33-6,11.59-7.69,2.42-.96,4.75-1.08,6.98-.49-.3-.34-.6-.69-.9-1.03-2.16-.5-4.41-.35-6.73.54Z"/>
              <path class="cls-28" d="m382.65,190.79c-.34-5.73,6.01-16.08,9.05-20.56,3.55-5.21,27.33-30.76,32.92-36.54,1.55-1.6,2.87-2.49,4.11-2.84-4.38-3.78-7.02-5.31-11.49-.58-5.36,5.68-28.15,30.82-31.52,35.95-3.37,5.13-11.54,19.16-7.38,22.38,1.46,1.13,2.91,1.84,4.3,2.19Z"/>
              <path class="cls-11" d="m387.75,166.46c.33.41.65.82.97,1.23,0,0,0,0,0,0,3.63-5.12,27.87-30.18,33.57-35.85,1.57-1.57,2.92-2.44,4.17-2.77-.48-.41-1.62-1.05-1.62-1.05-1.13.41-2.1,1.15-3.5,2.54-5.7,5.66-29.94,30.73-33.57,35.85-.01.02-.03.04-.04.06Z"/>
              <path class="cls-11" d="m391.77,166.53c.9-2.47-.12-4.5-1.34-6.51-2.32,2.74-4.07,4.93-4.83,6.08-3.37,5.13-11.54,19.16-7.38,22.38,1.14.89,2.28,1.51,3.39,1.9-.32-9.2,9.57-22.22,10.16-23.86Z"/>
              <path class="cls-8" d="m415.97,167.35c-.25-3.74.19-8.77.27-11.12.08-2.35-13.83,2.32-13.08,5.92.75,3.59,3.35,9.66,3.35,9.66l9.45-4.45Z"/>
              <path class="cls-8" d="m439.43,165.07c1.68-3.51,5.01-10.77,3.86-12.6-1.14-1.83-6.47-3.76-9.4.21-2.93,3.97-5.44,12.36-2.95,13s7.27,1.94,8.49-.61Z"/>
              <path class="cls-12" d="m434.35,171.32c-1.08-.37-1.76-1.22-1.53-1.9.23-.68,1.29-.93,2.37-.56s1.76,1.22,1.53,1.9c-.23.68-1.29.93-2.37.56Z"/>
              <path class="cls-12" d="m428.44,169.6c-1.08-.37-1.76-1.22-1.53-1.9.23-.68,1.29-.93,2.37-.56s1.76,1.22,1.53,1.9c-.23.68-1.29.93-2.37.56Z"/>
              <path class="cls-12" d="m420.01,167.89c-.89-.02-1.6-.48-1.59-1.04.01-.56.74-1,1.63-.99.89.02,1.6.48,1.59,1.04-.01.56-.74,1-1.63.99Z"/>
              <path class="cls-12" d="m415.21,170.75c-.85.25-1.67.02-1.83-.52-.16-.54.41-1.18,1.26-1.43.85-.25,1.67-.02,1.83.52.16.54-.41,1.18-1.26,1.43Z"/>
              <path class="cls-12" d="m410.04,173.18c-.8.38-1.65.28-1.89-.23-.24-.51.22-1.23,1.02-1.61.8-.38,1.65-.28,1.89.23.24.51-.22,1.23-1.02,1.61Z"/>
              <path class="cls-12" d="m405.85,175.06c-.8.38-1.65.28-1.89-.23-.24-.51.22-1.23,1.02-1.61.8-.38,1.65-.28,1.89.23s-.22,1.23-1.02,1.61Z"/>
              <path class="cls-11" d="m444.91,152.83c.46.74-2.89,6.98-5.21,13.73-1.61,4.7-2.44,9.83-3.47,11.9.6-.05,1.1-.14,1.43-.29,1.43-.63,2.24-7.04,4.21-12.79,2.31-6.75,5.66-12.99,5.21-13.73-.74-1.18-1.88-2.84-3.29-4.73.15,2.56.38,4.71,1.12,5.91Z"/>
              <path class="cls-8" d="m431.42,178.94c-.31-.09-.5-.35-.43-.58l2.43-8.68c.07-.23.37-.34.68-.25l1.38.42c.31.09.5.35.43.58l-2.43,8.68c-.07.23-.37.34-.68.25l-1.38-.42Z"/>
              <path class="cls-8" d="m426.05,178.51c-.31-.07-.52-.31-.48-.54l1.85-10.12c.05-.23.34-.37.65-.3l1.41.3c.31.07.52.31.48.54l-1.85,10.12c-.05.23-.34.37-.65.3l-1.41-.3Z"/>
              <path class="cls-8" d="m419.58,177.62c-.32,0-.58-.2-.58-.44l-.23-10.29c0-.24.26-.43.58-.43h1.44c.32,0,.58.2.58.44l.23,10.29c0,.24-.26.43-.58.43h-1.44Z"/>
              <path class="cls-8" d="m415.05,177.08c-.32.04-.6-.13-.62-.36l-.86-6.68c-.03-.24.21-.46.52-.5l1.43-.17c.32-.04.6.13.62.36l.86,6.68c.03.24-.21.46-.52.5l-1.43.17Z"/>
              <path class="cls-8" d="m411.54,178.43c-.3.12-.61.04-.7-.18l-2.35-5.54c-.09-.22.08-.5.37-.62l1.34-.54c.3-.12.61-.04.7.18l2.35,5.54c.09.22-.08.5-.37.62l-1.34.54Z"/>
              <path class="cls-8" d="m407.77,180.18c-.28.14-.6.09-.71-.12l-2.82-5.31c-.11-.21.03-.5.32-.65l1.29-.66c.28-.14.6-.09.71.12l2.82,5.31c.11.21-.03.5-.32.65l-1.28.66Z"/>
              <path class="cls-12" d="m401.48,177.72c-.71.54-1.56.61-1.9.16-.34-.45-.04-1.24.67-1.78.71-.54,1.56-.61,1.9-.16.34.45.04,1.24-.67,1.78Z"/>
              <path class="cls-8" d="m403.9,182.59c-.27.17-.59.14-.72-.06l-3.3-5.03c-.13-.2-.01-.5.26-.67l1.22-.77c.27-.17.59-.14.72.06l3.3,5.03c.13.2.01.5-.26.67l-1.22.77Z"/>
            </g>
            <g>
              <path class="cls-7" d="m412.86,159.88c.07.05.14.1.22.14.28.16.57.19.86.01.3-.18.38-.49.33-.79-.06-.42-.22-.81-.6-1.06-.31-.2-.73-.13-.93.18-.06.09-.07.24-.04.35.04.17.13.32.21.5l-.42.18c-.02-.07-.02-.14-.05-.21-.1-.23-.25-.44-.06-.7.24-.33.52-.58.95-.62.65-.06,1.15.35,1.34,1.1.12.47-.19,1.06-.7,1.28-.33.14-.67.13-.99-.04-.09-.05-.13-.17-.2-.25.03-.02.06-.04.08-.06Z"/>
              <path class="cls-7" d="m405.87,161.78c0-.16-.04-.34.02-.47.19-.47.72-.75,1.26-.71.47.04.87.43,1.03,1.03.12.44-.05.93-.43,1.21-.3.22-.65.26-1,.22-.22-.02-.39-.14-.4-.46.09.06.16.1.23.14.3.18.6.23.9.03.3-.19.41-.49.31-.81-.09-.31-.21-.63-.41-.88-.36-.46-1.08-.29-1.29.28-.05.14-.09.28-.13.43-.04,0-.07,0-.11-.01Z"/>
              <path class="cls-7" d="m408.11,160.82c-.19-.16-.18-.31-.08-.48.27-.49.82-.75,1.32-.63.53.13.96.69.98,1.28.04.86-.83,1.34-1.59,1.13-.13-.04-.21-.25-.32-.38.02-.02.04-.03.06-.05.14.08.27.18.42.24.41.18.89-.04,1.01-.46.14-.47-.15-1.17-.58-1.42-.45-.26-.93-.09-1.11.4-.04.12-.07.24-.12.38Z"/>
              <path class="cls-7" d="m410.96,161.43c-.23-.53-.42-.96-.6-1.39-.21-.51-.06-.94.37-1.13.5-.23.94-.07,1.19.43.11.22.19.45.29.67.1.22.19.44.29.67l-.33.14c-.19-.44-.38-.89-.58-1.33-.18-.4-.46-.52-.82-.36-.33.14-.45.48-.29.86.17.4.35.78.51,1.18.02.05-.02.14-.04.26Z"/>
              <path class="cls-7" d="m406.24,163.4l-.37.16-.9-2.08.37-.16c.3.69.59,1.37.9,2.08Z"/>
            </g>
            <g>
              <path class="cls-18" d="m427.77,135.48c.08.03.16.06.25.08.32.08.6.03.84-.21.25-.25.24-.57.12-.85-.16-.39-.42-.73-.85-.87-.35-.12-.74.06-.85.41-.03.1,0,.25.05.35.08.15.21.28.33.43l-.36.28c-.03-.06-.06-.13-.1-.19-.15-.2-.36-.36-.24-.66.15-.38.36-.7.76-.84.61-.22,1.2.05,1.57.72.24.43.09,1.08-.35,1.42-.28.22-.61.3-.96.21-.1-.02-.17-.13-.26-.19.02-.03.04-.05.07-.08Z"/>
              <path class="cls-18" d="m421.49,139.08c-.04-.15-.12-.32-.1-.46.06-.5.5-.9,1.04-1,.46-.08.95.2,1.26.73.23.4.19.92-.11,1.28-.24.29-.56.41-.92.47-.22.03-.41-.04-.5-.35.11.03.18.06.26.08.33.1.64.07.88-.2.24-.26.27-.58.1-.87-.17-.28-.37-.56-.62-.75-.47-.35-1.12,0-1.17.6-.01.15-.01.3-.02.45-.03,0-.07.01-.1.02Z"/>
              <path class="cls-18" d="m423.41,137.59c-.22-.11-.25-.25-.2-.45.14-.54.6-.93,1.12-.95.55-.01,1.1.43,1.27.98.25.82-.46,1.51-1.25,1.5-.14,0-.27-.19-.41-.29.02-.02.03-.04.05-.06.16.04.31.1.47.13.44.07.85-.27.86-.71.01-.49-.44-1.09-.92-1.22-.5-.14-.92.15-.97.67-.01.12-.01.25-.02.4Z"/>
              <path class="cls-18" d="m426.32,137.46c-.36-.46-.65-.82-.93-1.19-.33-.44-.3-.89.07-1.19.43-.35.9-.31,1.26.11.16.18.3.38.45.57.15.19.3.38.45.57l-.28.22c-.3-.38-.59-.76-.89-1.14-.27-.34-.57-.38-.89-.14-.29.22-.32.58-.07.9.26.34.54.67.8,1.01.04.05.02.14.03.27Z"/>
              <path class="cls-18" d="m422.25,140.56l-.32.25-1.4-1.79.32-.25c.47.6.92,1.18,1.4,1.79Z"/>
            </g>
          </g>
          <g>
            <path class="cls-7" d="m575.67,185.17c.05-.07.1-.13.15-.2.17-.26.21-.54.05-.82-.16-.3-.45-.38-.74-.36-.4.04-.79.17-1.04.52-.21.29-.16.69.12.89.08.06.23.08.33.06.16-.03.31-.11.49-.17l.15.41c-.07.01-.14.02-.2.04-.22.08-.43.22-.67.02-.3-.24-.53-.53-.55-.93-.03-.62.39-1.08,1.11-1.22.46-.09,1,.23,1.19.73.12.32.09.65-.09.94-.05.08-.17.12-.25.18-.02-.03-.04-.06-.06-.08Z"/>
            <path class="cls-7" d="m577.12,191.93c-.15-.01-.32.02-.45-.04-.44-.2-.68-.72-.61-1.24.06-.44.46-.8,1.03-.93.43-.1.89.09,1.13.47.19.3.21.63.16.97-.03.21-.16.36-.46.35.06-.09.1-.15.15-.21.19-.27.25-.56.08-.86-.17-.29-.45-.41-.76-.34-.3.07-.61.17-.86.34-.46.32-.33,1.02.21,1.24.13.06.27.1.4.15,0,.03-.01.07-.02.1Z"/>
            <path class="cls-7" d="m576.32,189.75c-.16.17-.3.15-.47.05-.45-.28-.67-.82-.53-1.29.15-.5.71-.88,1.27-.87.82,0,1.24.86,1,1.57-.04.12-.25.19-.38.29-.01-.02-.03-.04-.04-.06.08-.13.18-.25.25-.39.19-.38,0-.85-.39-.99-.44-.16-1.12.08-1.38.48-.27.42-.13.88.33,1.08.11.05.22.08.36.13Z"/>
            <path class="cls-7" d="m577.05,187.06c-.52.19-.93.35-1.35.5-.49.17-.9.01-1.06-.41-.19-.49-.02-.9.47-1.12.21-.09.43-.16.65-.24.21-.08.43-.16.65-.24l.12.32c-.43.16-.87.32-1.29.48-.39.15-.52.41-.39.77.12.32.43.46.8.32.39-.14.76-.29,1.15-.43.05-.02.13.03.25.05Z"/>
            <path class="cls-7" d="m578.69,191.67l.13.36-2.03.75-.13-.36c.68-.25,1.34-.5,2.03-.75Z"/>
          </g>
          <g>
            <g class="cls-33">
              <path class="cls-7" d="m669.93,70.18l1.38,2s-.01-.02-.02-.03l-1.38-2s.01.02.02.03Z"/>
              <path class="cls-7" d="m697.24,67.98l.71-1.9m-81.21,18.09l-2.56-4.42c-4.28-7.37,2.84-18.54,3.34-19.33l2.53,4.4c-.5.79-7.57,12-3.31,19.35h0Z"/>
              <path class="cls-7" d="m661.84,87.5l-2.35-4.17c-2.58-4.58-1.31-11.18-.04-15.38,0-.05.13-.79-.14-1.27l2.34,4.17c.27.48.15,1.22.14,1.27-1.27,4.21-2.53,10.82.05,15.38Z"/>
              <path class="cls-7" d="m672.8,89.96c-3.82-.23-6.56-2.16-8.07-4.85l-2.33-4.15c1.52,2.7,4.27,4.64,8.1,4.89,10.83.71,21.79-12.27,18.14-18.92l2.2,4c3.65,6.64-7.27,19.67-18.04,19.02h0Z"/>
              <path class="cls-7" d="m655.71,68.34l-2.36-4.2c1.76-.93,7.36-.53,8.19.76l2.33,4.15c-.84-1.29-6.43-1.63-8.16-.71Z"/>
              <path class="cls-7" d="m629.5,87.34c-4.16-.25-7.04-2.17-8.6-4.87l-2.54-4.39c1.57,2.71,4.46,4.65,8.64,4.92,11.81.78,25.15-12.43,21.07-19.67l2.39,4.23c4.08,7.23-9.2,20.5-20.95,19.79Z"/>
              <path class="cls-7" d="m652.97,63.39l2.36,4.2c-1.04-1.85-4.41-6.49-12.5-7.27l-2.42-4.27c8.12.82,11.51,5.48,12.55,7.34h0Z"/>
              <path class="cls-7" d="m698.94,67.86l-1.12,3.04-1.7.57c-.21,1.03-4.24,20.78-23.48,20.99-11.63.13-14.48-8.26-10.85-20.35.01-.07.21-1.29-.49-1.6-.69-.31-3.4-.54-4.31-.37-.9.17-1.69,1.36-1.73,1.42-5.63,11.07-15,19.9-27.74,18.32-21.59-2.69-8.16-23.98-7.47-25.07l-1.43-.93,1.48-3.35c6.52.32,13.5-1.11,22.73-.22,9.86.95,12.72,7.66,12.87,8.02,1.75-.94,7.33-.57,8.16.71,4.57-3.37,11.57-5.79,17.79-5,9.16,1.17,12.07,3.07,17.29,3.81h0Zm-69.44,19.48c8.66.52,18.21-6.56,20.96-13.28,2.72-6.64-2.14-10.66-10.5-11.43-8.54-.79-16.28,2.31-19.29,9.18-3.05,6.96-.02,14.99,8.83,15.53m43.3,2.62c13.93.84,28.88-21.61,9-23.45-7.65-.71-14.95,2.13-17.54,8.65-2.62,6.61.63,14.32,8.54,14.8"/>
              <path class="cls-7" d="m663.86,69.05l-2.33-4.16c4.59-3.35,11.63-5.73,17.87-4.9,9.2,1.22,12.12,3.14,17.37,3.91l2.16,3.96c-5.22-.75-8.13-2.64-17.29-3.81-6.28-.8-13.28,1.67-17.79,5Z"/>
              <path class="cls-7" d="m618.62,63.89l-2.54-4.41,1.49-3.34,2.53,4.4-1.48,3.35Z"/>
              <path class="cls-7" d="m620.1,60.54l-2.53-4.4c6.55.36,13.57-1.03,22.84-.09l2.42,4.27c-9.4-.9-16.09.55-22.73.22Z"/>
              <path class="cls-7" d="m639.96,62.63c-7.75-.71-16.06,1.8-19.29,9.18-1.34,3.06-1.5,6.33-.5,9.09,1.86,5.13,6.83,6.74,11.34,6.43,8.04-.57,16.39-7,18.95-13.27,2.9-7.09-2.89-10.74-10.5-11.43Zm41.84,3.87c-6.91-.65-14.76,1.65-17.54,8.65-2.71,6.81.81,14.34,8.54,14.8,7.44.49,15.63-5.91,18.1-12.6,2.52-6.81-2.31-10.23-9.1-10.86Z"/>
              <g>
                <path class="cls-7" d="m691.31,72.06l-10.83,16.23c-1.34.66-2.76,1.14-4.25,1.43l13.55-20.17c.72.73,1.24,1.56,1.52,2.51Zm-2.85-3.57l-14.48,21.47c-3.22.17-6.96-1.06-9.09-4.58l13.07-18.93c3.03-.21,7.54.15,10.51,2.04Z"/>
                <path class="cls-7" d="m650.03,66.91l-14.24,19.59c-1.38.44-2.81.71-4.29.83l16.36-22.38c.89.56,1.62,1.22,2.16,1.96Zm-3.81-2.83l-17.07,23.22c-4.74-.39-7.75-2.99-8.99-6.4l13.66-18.14c3.68-.53,8.75-.24,12.39,1.32Z"/>
              </g>
            </g>
            <g>
              <path class="cls-13" d="m672.21,67.79l1.38,2s-.01-.02-.02-.03l-1.38-2s.01.02.02.03Z"/>
              <path class="cls-13" d="m699.53,65.59l.71-1.9m-81.21,18.09l-2.56-4.42c-4.28-7.37,2.84-18.54,3.34-19.33l2.53,4.4c-.5.79-7.57,12-3.31,19.35h0Z"/>
              <path class="cls-9" d="m664.13,85.11l-2.35-4.17c-2.58-4.58-1.31-11.18-.04-15.38,0-.05.13-.79-.14-1.27l2.34,4.17c.27.48.15,1.22.14,1.27-1.27,4.21-2.53,10.82.05,15.38Z"/>
              <path class="cls-13" d="m675.09,87.57c-3.82-.23-6.56-2.16-8.07-4.85l-2.33-4.15c1.52,2.7,4.27,4.64,8.1,4.89,10.83.71,21.79-12.27,18.14-18.92l2.2,4c3.65,6.64-7.27,19.67-18.04,19.02h0Z"/>
              <path class="cls-14" d="m658,65.95l-2.36-4.2c1.76-.93,7.36-.53,8.19.76l2.33,4.15c-.84-1.29-6.43-1.63-8.16-.71Z"/>
              <path class="cls-13" d="m631.79,84.95c-4.16-.25-7.04-2.17-8.6-4.87l-2.54-4.39c1.57,2.71,4.46,4.65,8.64,4.92,11.81.78,25.15-12.43,21.07-19.67l2.39,4.23c4.08,7.23-9.2,20.5-20.95,19.79Z"/>
              <path class="cls-13" d="m655.26,61l2.36,4.2c-1.04-1.85-4.41-6.49-12.5-7.27l-2.42-4.27c8.12.82,11.51,5.48,12.55,7.34h0Z"/>
              <path class="cls-9" d="m701.23,65.47l-1.12,3.04-1.7.57c-.21,1.03-4.24,20.78-23.48,20.99-11.63.13-14.48-8.26-10.85-20.35.01-.07.21-1.29-.49-1.6-.69-.31-3.4-.54-4.31-.37-.9.17-1.69,1.36-1.73,1.42-5.63,11.07-15,19.9-27.74,18.32-21.59-2.69-8.16-23.98-7.47-25.07l-1.43-.93,1.48-3.35c6.52.32,13.5-1.11,22.73-.22,9.86.95,12.72,7.66,12.87,8.02,1.75-.94,7.33-.57,8.16.71,4.57-3.37,11.57-5.79,17.79-5,9.16,1.17,12.07,3.07,17.29,3.81h0Zm-69.44,19.48c8.66.52,18.21-6.56,20.96-13.28,2.72-6.64-2.14-10.66-10.5-11.43-8.54-.79-16.28,2.31-19.29,9.18-3.05,6.96-.02,14.99,8.83,15.53m43.3,2.62c13.93.84,28.88-21.61,9-23.45-7.65-.71-14.95,2.13-17.54,8.65-2.62,6.61.63,14.32,8.54,14.8"/>
              <path class="cls-13" d="m666.15,66.66l-2.33-4.16c4.59-3.35,11.63-5.73,17.87-4.9,9.2,1.22,12.12,3.14,17.37,3.91l2.16,3.96c-5.22-.75-8.13-2.64-17.29-3.81-6.28-.8-13.28,1.67-17.79,5Z"/>
              <path class="cls-14" d="m620.91,61.5l-2.54-4.41,1.49-3.34,2.53,4.4-1.48,3.35Z"/>
              <path class="cls-13" d="m622.39,58.15l-2.53-4.4c6.55.36,13.57-1.03,22.84-.09l2.42,4.27c-9.4-.9-16.09.55-22.73.22Z"/>
              <path class="cls-7" d="m642.25,60.24c-7.75-.71-16.06,1.8-19.29,9.18-1.34,3.06-1.5,6.33-.5,9.09,1.86,5.13,6.83,6.74,11.34,6.43,8.04-.57,16.39-7,18.95-13.27,2.9-7.09-2.89-10.74-10.5-11.43Zm41.84,3.87c-6.91-.65-14.76,1.65-17.54,8.65-2.71,6.81.81,14.34,8.54,14.8,7.44.49,15.63-5.91,18.1-12.6,2.52-6.81-2.31-10.23-9.1-10.86Z"/>
              <g>
                <path class="cls-29" d="m693.6,69.67l-10.83,16.23c-1.34.66-2.76,1.14-4.25,1.43l13.55-20.17c.72.73,1.24,1.56,1.52,2.51Zm-2.85-3.57l-14.48,21.47c-3.22.17-6.96-1.06-9.09-4.58l13.07-18.93c3.03-.21,7.54.15,10.51,2.04Z"/>
                <path class="cls-29" d="m652.32,64.52l-14.24,19.59c-1.38.44-2.81.71-4.29.83l16.36-22.38c.89.56,1.62,1.22,2.16,1.96Zm-3.81-2.83l-17.07,23.22c-4.74-.39-7.75-2.99-8.99-6.4l13.66-18.14c3.68-.53,8.75-.24,12.39,1.32Z"/>
              </g>
            </g>
          </g>
        </g>
      </g>
      <g>
        <g>
          <path class="cls-24" d="m51.04,200.87H13.28c-5.23,0-8.75-.37-10.56-1.12-1.82-.75-2.72-1.97-2.72-3.68v-100.96c0-2.77,1.17-4.77,3.52-6,2.34-1.23,6.4-1.84,12.16-1.84h36c20.48,0,34.61,4.03,42.4,12.08,7.78,8.06,11.68,22.69,11.68,43.92s-4.05,36.14-12.16,44.72c-8.11,8.59-22.29,12.88-42.56,12.88Zm-1.28-89.76c-2.56,0-4.27.21-5.12.64v64.64l6.08.64c3.2,0,5.62-2.56,7.28-7.68,1.65-5.12,2.48-13.97,2.48-26.56s-.85-21.01-2.56-25.28c-1.71-4.27-4.43-6.4-8.16-6.4Z"/>
          <path class="cls-24" d="m138.4,76.07c7.04,0,12.56,1.04,16.56,3.12,4,2.08,6,5.84,6,11.28,0,9.6-7.47,14.4-22.4,14.4s-22.4-4.8-22.4-14.4,7.41-14.4,22.24-14.4Zm21.76,42.08v78.88c0,1.17-3.07,2.11-9.2,2.8-6.14.69-12.43,1.04-18.88,1.04s-10.61-.29-12.48-.88c-1.87-.58-2.8-1.57-2.8-2.96v-76c0-2.35,3.01-4.67,9.04-6.96,6.02-2.29,12.61-3.44,19.76-3.44,9.71,0,14.56,2.51,14.56,7.52Z"/>
          <path class="cls-24" d="m268.64,147.75v49.28c0,1.17-3.04,2.11-9.12,2.8-6.08.69-12.35,1.04-18.8,1.04s-10.62-.29-12.48-.88c-1.87-.58-2.8-1.57-2.8-2.96v-50.88c0-4.8-.19-7.94-.56-9.44-.38-1.49-.72-2.82-1.04-4-.75-2.02-2.08-3.04-4-3.04-2.99,0-4.48,1.44-4.48,4.32v63.04c0,1.17-3.01,2.11-9.04,2.8-6.03.69-12.27,1.04-18.72,1.04s-10.64-.29-12.56-.88c-1.92-.58-2.88-1.57-2.88-2.96v-78.88c0-2.24,3.07-4.48,9.2-6.72,6.13-2.24,12.61-3.36,19.44-3.36s10.67,1.97,11.52,5.92l1.44,7.04h1.12c3.09-6.19,8.42-10.51,16-12.96,3.09-.96,6.5-1.44,10.24-1.44,10.77,0,18.05,3.23,21.84,9.68,3.78,6.46,5.68,16.94,5.68,31.44Z"/>
          <path class="cls-24" d="m329.11,202.31c-8,0-14.88-.69-20.64-2.08-5.76-1.38-10.99-3.84-15.68-7.36-9.71-7.04-14.56-20.16-14.56-39.36,0-17.06,4.96-29.28,14.88-36.64,9.28-6.83,21.28-10.24,36-10.24,6.29,0,11.68.3,16.16.88,4.48.59,9.04,1.84,13.68,3.76,4.64,1.92,8.37,4.54,11.2,7.84,2.83,3.31,5.15,7.87,6.96,13.68,1.81,5.81,2.72,12.72,2.72,20.72,0,16.21-4.59,28.4-13.76,36.56-9.17,8.16-21.5,12.24-36.96,12.24Zm-5.6-31.2c.75,3.84,1.52,6.13,2.32,6.88.8.75,1.87,1.12,3.2,1.12s2.4-.37,3.2-1.12c.8-.75,1.54-3.04,2.24-6.88.69-3.84,1.04-8.67,1.04-14.48s-.14-10.29-.4-13.44c-.27-3.15-.59-5.57-.96-7.28-.38-1.71-.88-3.04-1.52-4-.96-1.39-2.11-2.08-3.44-2.08s-2.43.4-3.28,1.2c-.85.8-1.65,3.15-2.4,7.04-.75,3.9-1.12,9.42-1.12,16.56s.37,12.64,1.12,16.48Z"/>
          <path class="cls-24" d="m432.95,202.31c-17.71,0-30.67-1.71-38.88-5.12-4.16-1.81-6.24-3.57-6.24-5.28,0-4.37,1.28-9.49,3.84-15.36,2.56-5.87,4.8-8.8,6.72-8.8,1.07,0,4.67,1.18,10.8,3.52,6.13,2.35,11.3,3.52,15.52,3.52s6.99-.27,8.32-.8c1.33-.53,2-1.57,2-3.12s-1.07-2.77-3.2-3.68c-2.13-.9-4.8-1.52-8-1.84s-6.64-.96-10.32-1.92c-3.68-.96-7.12-2.19-10.32-3.68-3.2-1.49-5.87-3.97-8-7.44-2.14-3.46-3.2-7.2-3.2-11.2s.1-6.99.32-8.96c.21-1.97,1.09-4.74,2.64-8.32,1.54-3.57,3.73-6.48,6.56-8.72,2.83-2.24,7.2-4.27,13.12-6.08,5.92-1.81,12.56-2.72,19.92-2.72s13.52.24,18.48.72,8.85,1.09,11.68,1.84c2.83.75,5.15,1.6,6.96,2.56,3.09,1.6,4.64,3.36,4.64,5.28,0,4.16-1.5,8.96-4.48,14.4-2.99,5.44-5.36,8.16-7.12,8.16s-5.58-.93-11.44-2.8c-5.87-1.87-10.19-2.8-12.96-2.8-4.48,0-6.72,1.28-6.72,3.84,0,1.6,1.52,2.8,4.56,3.6,3.04.8,6.69,1.63,10.96,2.48,4.26.85,8.56,2.05,12.88,3.6,4.32,1.55,8,4.35,11.04,8.4,3.04,4.05,4.56,9.17,4.56,15.36,0,20.91-14.88,31.36-44.64,31.36Z"/>
          <path class="cls-24" d="m536.47,202.31c-8,0-14.88-.69-20.64-2.08-5.76-1.38-10.99-3.84-15.68-7.36-9.71-7.04-14.56-20.16-14.56-39.36,0-17.06,4.96-29.28,14.88-36.64,9.28-6.83,21.28-10.24,36-10.24,6.29,0,11.68.3,16.16.88,4.48.59,9.04,1.84,13.68,3.76,4.64,1.92,8.37,4.54,11.2,7.84,2.83,3.31,5.15,7.87,6.96,13.68,1.81,5.81,2.72,12.72,2.72,20.72,0,16.21-4.59,28.4-13.76,36.56-9.17,8.16-21.5,12.24-36.96,12.24Zm-5.6-31.2c.75,3.84,1.52,6.13,2.32,6.88.8.75,1.87,1.12,3.2,1.12s2.4-.37,3.2-1.12c.8-.75,1.54-3.04,2.24-6.88.69-3.84,1.04-8.67,1.04-14.48s-.14-10.29-.4-13.44c-.27-3.15-.59-5.57-.96-7.28-.38-1.71-.88-3.04-1.52-4-.96-1.39-2.11-2.08-3.44-2.08s-2.43.4-3.28,1.2c-.85.8-1.65,3.15-2.4,7.04-.75,3.9-1.12,9.42-1.12,16.56s.37,12.64,1.12,16.48Z"/>
          <path class="cls-24" d="m639.99,83.43v113.6c0,1.17-3.04,2.11-9.12,2.8-6.08.69-12.35,1.04-18.8,1.04s-10.62-.29-12.48-.88c-1.87-.58-2.8-1.57-2.8-2.96v-110.72c0-2.34,3.01-4.64,9.04-6.88,6.03-2.24,12.5-3.36,19.44-3.36,9.81,0,14.72,2.45,14.72,7.36Z"/>
        </g>
        <g>
          <path class="cls-31" d="m51.04,212.59H13.28c-5.23,0-8.75-.37-10.56-1.12-1.82-.75-2.72-1.97-2.72-3.68v-100.96c0-2.77,1.17-4.77,3.52-6,2.34-1.23,6.4-1.84,12.16-1.84h36c20.48,0,34.61,4.03,42.4,12.08,7.78,8.06,11.68,22.69,11.68,43.92s-4.05,36.14-12.16,44.72c-8.11,8.59-22.29,12.88-42.56,12.88Zm-1.28-89.76c-2.56,0-4.27.21-5.12.64v64.64l6.08.64c3.2,0,5.62-2.56,7.28-7.68,1.65-5.12,2.48-13.97,2.48-26.56s-.85-21.01-2.56-25.28c-1.71-4.27-4.43-6.4-8.16-6.4Z"/>
          <path class="cls-31" d="m138.4,87.79c7.04,0,12.56,1.04,16.56,3.12,4,2.08,6,5.84,6,11.28,0,9.6-7.47,14.4-22.4,14.4s-22.4-4.8-22.4-14.4,7.41-14.4,22.24-14.4Zm21.76,42.08v78.88c0,1.17-3.07,2.11-9.2,2.8-6.14.69-12.43,1.04-18.88,1.04s-10.61-.29-12.48-.88c-1.87-.58-2.8-1.57-2.8-2.96v-76c0-2.35,3.01-4.67,9.04-6.96,6.02-2.29,12.61-3.44,19.76-3.44,9.71,0,14.56,2.51,14.56,7.52Z"/>
          <path class="cls-31" d="m268.64,159.47v49.28c0,1.17-3.04,2.11-9.12,2.8-6.08.69-12.35,1.04-18.8,1.04s-10.62-.29-12.48-.88c-1.87-.58-2.8-1.57-2.8-2.96v-50.88c0-4.8-.19-7.94-.56-9.44-.38-1.49-.72-2.82-1.04-4-.75-2.02-2.08-3.04-4-3.04-2.99,0-4.48,1.44-4.48,4.32v63.04c0,1.17-3.01,2.11-9.04,2.8-6.03.69-12.27,1.04-18.72,1.04s-10.64-.29-12.56-.88c-1.92-.58-2.88-1.57-2.88-2.96v-78.88c0-2.24,3.07-4.48,9.2-6.72,6.13-2.24,12.61-3.36,19.44-3.36s10.67,1.97,11.52,5.92l1.44,7.04h1.12c3.09-6.19,8.42-10.51,16-12.96,3.09-.96,6.5-1.44,10.24-1.44,10.77,0,18.05,3.23,21.84,9.68,3.78,6.46,5.68,16.94,5.68,31.44Z"/>
          <path class="cls-31" d="m329.11,214.03c-8,0-14.88-.69-20.64-2.08-5.76-1.38-10.99-3.84-15.68-7.36-9.71-7.04-14.56-20.16-14.56-39.36,0-17.06,4.96-29.28,14.88-36.64,9.28-6.83,21.28-10.24,36-10.24,6.29,0,11.68.3,16.16.88,4.48.59,9.04,1.84,13.68,3.76,4.64,1.92,8.37,4.54,11.2,7.84,2.83,3.31,5.15,7.87,6.96,13.68,1.81,5.81,2.72,12.72,2.72,20.72,0,16.21-4.59,28.4-13.76,36.56-9.17,8.16-21.5,12.24-36.96,12.24Zm-5.6-31.2c.75,3.84,1.52,6.13,2.32,6.88.8.75,1.87,1.12,3.2,1.12s2.4-.37,3.2-1.12c.8-.75,1.54-3.04,2.24-6.88.69-3.84,1.04-8.67,1.04-14.48s-.14-10.29-.4-13.44c-.27-3.15-.59-5.57-.96-7.28-.38-1.71-.88-3.04-1.52-4-.96-1.39-2.11-2.08-3.44-2.08s-2.43.4-3.28,1.2c-.85.8-1.65,3.15-2.4,7.04-.75,3.9-1.12,9.42-1.12,16.56s.37,12.64,1.12,16.48Z"/>
          <path class="cls-31" d="m432.95,214.03c-17.71,0-30.67-1.71-38.88-5.12-4.16-1.81-6.24-3.57-6.24-5.28,0-4.37,1.28-9.49,3.84-15.36,2.56-5.87,4.8-8.8,6.72-8.8,1.07,0,4.67,1.18,10.8,3.52,6.13,2.35,11.3,3.52,15.52,3.52s6.99-.27,8.32-.8c1.33-.53,2-1.57,2-3.12s-1.07-2.77-3.2-3.68c-2.13-.9-4.8-1.52-8-1.84s-6.64-.96-10.32-1.92c-3.68-.96-7.12-2.19-10.32-3.68-3.2-1.49-5.87-3.97-8-7.44-2.14-3.46-3.2-7.2-3.2-11.2s.1-6.99.32-8.96c.21-1.97,1.09-4.74,2.64-8.32,1.54-3.57,3.73-6.48,6.56-8.72,2.83-2.24,7.2-4.27,13.12-6.08,5.92-1.81,12.56-2.72,19.92-2.72s13.52.24,18.48.72,8.85,1.09,11.68,1.84c2.83.75,5.15,1.6,6.96,2.56,3.09,1.6,4.64,3.36,4.64,5.28,0,4.16-1.5,8.96-4.48,14.4-2.99,5.44-5.36,8.16-7.12,8.16s-5.58-.93-11.44-2.8c-5.87-1.87-10.19-2.8-12.96-2.8-4.48,0-6.72,1.28-6.72,3.84,0,1.6,1.52,2.8,4.56,3.6,3.04.8,6.69,1.63,10.96,2.48,4.26.85,8.56,2.05,12.88,3.6,4.32,1.55,8,4.35,11.04,8.4,3.04,4.05,4.56,9.17,4.56,15.36,0,20.91-14.88,31.36-44.64,31.36Z"/>
          <path class="cls-31" d="m536.47,214.03c-8,0-14.88-.69-20.64-2.08-5.76-1.38-10.99-3.84-15.68-7.36-9.71-7.04-14.56-20.16-14.56-39.36,0-17.06,4.96-29.28,14.88-36.64,9.28-6.83,21.28-10.24,36-10.24,6.29,0,11.68.3,16.16.88,4.48.59,9.04,1.84,13.68,3.76,4.64,1.92,8.37,4.54,11.2,7.84,2.83,3.31,5.15,7.87,6.96,13.68,1.81,5.81,2.72,12.72,2.72,20.72,0,16.21-4.59,28.4-13.76,36.56-9.17,8.16-21.5,12.24-36.96,12.24Zm-5.6-31.2c.75,3.84,1.52,6.13,2.32,6.88.8.75,1.87,1.12,3.2,1.12s2.4-.37,3.2-1.12c.8-.75,1.54-3.04,2.24-6.88.69-3.84,1.04-8.67,1.04-14.48s-.14-10.29-.4-13.44c-.27-3.15-.59-5.57-.96-7.28-.38-1.71-.88-3.04-1.52-4-.96-1.39-2.11-2.08-3.44-2.08s-2.43.4-3.28,1.2c-.85.8-1.65,3.15-2.4,7.04-.75,3.9-1.12,9.42-1.12,16.56s.37,12.64,1.12,16.48Z"/>
          <path class="cls-31" d="m639.99,95.15v113.6c0,1.17-3.04,2.11-9.12,2.8-6.08.69-12.35,1.04-18.8,1.04s-10.62-.29-12.48-.88c-1.87-.58-2.8-1.57-2.8-2.96v-110.72c0-2.34,3.01-4.64,9.04-6.88,6.03-2.24,12.5-3.36,19.44-3.36,9.81,0,14.72,2.45,14.72,7.36Z"/>
        </g>
        <g>
          <path class="cls-16" d="m51.04,222.47H13.28c-5.23,0-8.75-.37-10.56-1.12-1.82-.75-2.72-1.97-2.72-3.68v-100.96c0-2.77,1.17-4.77,3.52-6,2.34-1.23,6.4-1.84,12.16-1.84h36c20.48,0,34.61,4.03,42.4,12.08,7.78,8.06,11.68,22.69,11.68,43.92s-4.05,36.14-12.16,44.72c-8.11,8.59-22.29,12.88-42.56,12.88Zm-1.28-89.76c-2.56,0-4.27.21-5.12.64v64.64l6.08.64c3.2,0,5.62-2.56,7.28-7.68,1.65-5.12,2.48-13.97,2.48-26.56s-.85-21.01-2.56-25.28c-1.71-4.27-4.43-6.4-8.16-6.4Z"/>
          <path class="cls-16" d="m138.4,97.67c7.04,0,12.56,1.04,16.56,3.12,4,2.08,6,5.84,6,11.28,0,9.6-7.47,14.4-22.4,14.4s-22.4-4.8-22.4-14.4,7.41-14.4,22.24-14.4Zm21.76,42.08v78.88c0,1.17-3.07,2.11-9.2,2.8-6.14.69-12.43,1.04-18.88,1.04s-10.61-.29-12.48-.88c-1.87-.58-2.8-1.57-2.8-2.96v-76c0-2.35,3.01-4.67,9.04-6.96,6.02-2.29,12.61-3.44,19.76-3.44,9.71,0,14.56,2.51,14.56,7.52Z"/>
          <path class="cls-16" d="m268.64,169.35v49.28c0,1.17-3.04,2.11-9.12,2.8-6.08.69-12.35,1.04-18.8,1.04s-10.62-.29-12.48-.88c-1.87-.58-2.8-1.57-2.8-2.96v-50.88c0-4.8-.19-7.94-.56-9.44-.38-1.49-.72-2.82-1.04-4-.75-2.02-2.08-3.04-4-3.04-2.99,0-4.48,1.44-4.48,4.32v63.04c0,1.17-3.01,2.11-9.04,2.8-6.03.69-12.27,1.04-18.72,1.04s-10.64-.29-12.56-.88c-1.92-.58-2.88-1.57-2.88-2.96v-78.88c0-2.24,3.07-4.48,9.2-6.72,6.13-2.24,12.61-3.36,19.44-3.36s10.67,1.97,11.52,5.92l1.44,7.04h1.12c3.09-6.19,8.42-10.51,16-12.96,3.09-.96,6.5-1.44,10.24-1.44,10.77,0,18.05,3.23,21.84,9.68,3.78,6.46,5.68,16.94,5.68,31.44Z"/>
          <path class="cls-16" d="m329.11,223.91c-8,0-14.88-.69-20.64-2.08-5.76-1.38-10.99-3.84-15.68-7.36-9.71-7.04-14.56-20.16-14.56-39.36,0-17.06,4.96-29.28,14.88-36.64,9.28-6.83,21.28-10.24,36-10.24,6.29,0,11.68.3,16.16.88,4.48.59,9.04,1.84,13.68,3.76,4.64,1.92,8.37,4.54,11.2,7.84,2.83,3.31,5.15,7.87,6.96,13.68,1.81,5.81,2.72,12.72,2.72,20.72,0,16.21-4.59,28.4-13.76,36.56-9.17,8.16-21.5,12.24-36.96,12.24Zm-5.6-31.2c.75,3.84,1.52,6.13,2.32,6.88.8.75,1.87,1.12,3.2,1.12s2.4-.37,3.2-1.12c.8-.75,1.54-3.04,2.24-6.88.69-3.84,1.04-8.67,1.04-14.48s-.14-10.29-.4-13.44c-.27-3.15-.59-5.57-.96-7.28-.38-1.71-.88-3.04-1.52-4-.96-1.39-2.11-2.08-3.44-2.08s-2.43.4-3.28,1.2c-.85.8-1.65,3.15-2.4,7.04-.75,3.9-1.12,9.42-1.12,16.56s.37,12.64,1.12,16.48Z"/>
          <path class="cls-16" d="m432.95,223.91c-17.71,0-30.67-1.71-38.88-5.12-4.16-1.81-6.24-3.57-6.24-5.28,0-4.37,1.28-9.49,3.84-15.36,2.56-5.87,4.8-8.8,6.72-8.8,1.07,0,4.67,1.18,10.8,3.52,6.13,2.35,11.3,3.52,15.52,3.52s6.99-.27,8.32-.8c1.33-.53,2-1.57,2-3.12s-1.07-2.77-3.2-3.68c-2.13-.9-4.8-1.52-8-1.84s-6.64-.96-10.32-1.92c-3.68-.96-7.12-2.19-10.32-3.68-3.2-1.49-5.87-3.97-8-7.44-2.14-3.46-3.2-7.2-3.2-11.2s.1-6.99.32-8.96c.21-1.97,1.09-4.74,2.64-8.32,1.54-3.57,3.73-6.48,6.56-8.72,2.83-2.24,7.2-4.27,13.12-6.08,5.92-1.81,12.56-2.72,19.92-2.72s13.52.24,18.48.72,8.85,1.09,11.68,1.84c2.83.75,5.15,1.6,6.96,2.56,3.09,1.6,4.64,3.36,4.64,5.28,0,4.16-1.5,8.96-4.48,14.4-2.99,5.44-5.36,8.16-7.12,8.16s-5.58-.93-11.44-2.8c-5.87-1.87-10.19-2.8-12.96-2.8-4.48,0-6.72,1.28-6.72,3.84,0,1.6,1.52,2.8,4.56,3.6,3.04.8,6.69,1.63,10.96,2.48,4.26.85,8.56,2.05,12.88,3.6,4.32,1.55,8,4.35,11.04,8.4,3.04,4.05,4.56,9.17,4.56,15.36,0,20.91-14.88,31.36-44.64,31.36Z"/>
          <path class="cls-16" d="m536.47,223.91c-8,0-14.88-.69-20.64-2.08-5.76-1.38-10.99-3.84-15.68-7.36-9.71-7.04-14.56-20.16-14.56-39.36,0-17.06,4.96-29.28,14.88-36.64,9.28-6.83,21.28-10.24,36-10.24,6.29,0,11.68.3,16.16.88,4.48.59,9.04,1.84,13.68,3.76,4.64,1.92,8.37,4.54,11.2,7.84,2.83,3.31,5.15,7.87,6.96,13.68,1.81,5.81,2.72,12.72,2.72,20.72,0,16.21-4.59,28.4-13.76,36.56-9.17,8.16-21.5,12.24-36.96,12.24Zm-5.6-31.2c.75,3.84,1.52,6.13,2.32,6.88.8.75,1.87,1.12,3.2,1.12s2.4-.37,3.2-1.12c.8-.75,1.54-3.04,2.24-6.88.69-3.84,1.04-8.67,1.04-14.48s-.14-10.29-.4-13.44c-.27-3.15-.59-5.57-.96-7.28-.38-1.71-.88-3.04-1.52-4-.96-1.39-2.11-2.08-3.44-2.08s-2.43.4-3.28,1.2c-.85.8-1.65,3.15-2.4,7.04-.75,3.9-1.12,9.42-1.12,16.56s.37,12.64,1.12,16.48Z"/>
          <path class="cls-16" d="m639.99,105.03v113.6c0,1.17-3.04,2.11-9.12,2.8-6.08.69-12.35,1.04-18.8,1.04s-10.62-.29-12.48-.88c-1.87-.58-2.8-1.57-2.8-2.96v-110.72c0-2.34,3.01-4.64,9.04-6.88,6.03-2.24,12.5-3.36,19.44-3.36,9.81,0,14.72,2.45,14.72,7.36Z"/>
        </g>
        <g>
          <path class="cls-29" d="m51.04,232.69H13.28c-5.23,0-8.75-.37-10.56-1.12-1.82-.75-2.72-1.97-2.72-3.68v-100.96c0-2.77,1.17-4.77,3.52-6,2.34-1.23,6.4-1.84,12.16-1.84h36c20.48,0,34.61,4.03,42.4,12.08,7.78,8.06,11.68,22.69,11.68,43.92s-4.05,36.14-12.16,44.72c-8.11,8.59-22.29,12.88-42.56,12.88Zm-1.28-89.76c-2.56,0-4.27.21-5.12.64v64.64l6.08.64c3.2,0,5.62-2.56,7.28-7.68,1.65-5.12,2.48-13.97,2.48-26.56s-.85-21.01-2.56-25.28c-1.71-4.27-4.43-6.4-8.16-6.4Z"/>
          <path class="cls-29" d="m138.4,107.89c7.04,0,12.56,1.04,16.56,3.12,4,2.08,6,5.84,6,11.28,0,9.6-7.47,14.4-22.4,14.4s-22.4-4.8-22.4-14.4,7.41-14.4,22.24-14.4Zm21.76,42.08v78.88c0,1.17-3.07,2.11-9.2,2.8-6.14.69-12.43,1.04-18.88,1.04s-10.61-.29-12.48-.88c-1.87-.58-2.8-1.57-2.8-2.96v-76c0-2.35,3.01-4.67,9.04-6.96,6.02-2.29,12.61-3.44,19.76-3.44,9.71,0,14.56,2.51,14.56,7.52Z"/>
          <path class="cls-29" d="m268.64,179.57v49.28c0,1.17-3.04,2.11-9.12,2.8-6.08.69-12.35,1.04-18.8,1.04s-10.62-.29-12.48-.88c-1.87-.58-2.8-1.57-2.8-2.96v-50.88c0-4.8-.19-7.94-.56-9.44-.38-1.49-.72-2.82-1.04-4-.75-2.02-2.08-3.04-4-3.04-2.99,0-4.48,1.44-4.48,4.32v63.04c0,1.17-3.01,2.11-9.04,2.8-6.03.69-12.27,1.04-18.72,1.04s-10.64-.29-12.56-.88c-1.92-.58-2.88-1.57-2.88-2.96v-78.88c0-2.24,3.07-4.48,9.2-6.72,6.13-2.24,12.61-3.36,19.44-3.36s10.67,1.97,11.52,5.92l1.44,7.04h1.12c3.09-6.19,8.42-10.51,16-12.96,3.09-.96,6.5-1.44,10.24-1.44,10.77,0,18.05,3.23,21.84,9.68,3.78,6.46,5.68,16.94,5.68,31.44Z"/>
          <path class="cls-29" d="m329.11,234.13c-8,0-14.88-.69-20.64-2.08-5.76-1.38-10.99-3.84-15.68-7.36-9.71-7.04-14.56-20.16-14.56-39.36,0-17.06,4.96-29.28,14.88-36.64,9.28-6.83,21.28-10.24,36-10.24,6.29,0,11.68.3,16.16.88,4.48.59,9.04,1.84,13.68,3.76,4.64,1.92,8.37,4.54,11.2,7.84,2.83,3.31,5.15,7.87,6.96,13.68,1.81,5.81,2.72,12.72,2.72,20.72,0,16.21-4.59,28.4-13.76,36.56-9.17,8.16-21.5,12.24-36.96,12.24Zm-5.6-31.2c.75,3.84,1.52,6.13,2.32,6.88.8.75,1.87,1.12,3.2,1.12s2.4-.37,3.2-1.12c.8-.75,1.54-3.04,2.24-6.88.69-3.84,1.04-8.67,1.04-14.48s-.14-10.29-.4-13.44c-.27-3.15-.59-5.57-.96-7.28-.38-1.71-.88-3.04-1.52-4-.96-1.39-2.11-2.08-3.44-2.08s-2.43.4-3.28,1.2c-.85.8-1.65,3.15-2.4,7.04-.75,3.9-1.12,9.42-1.12,16.56s.37,12.64,1.12,16.48Z"/>
          <path class="cls-29" d="m432.95,234.13c-17.71,0-30.67-1.71-38.88-5.12-4.16-1.81-6.24-3.57-6.24-5.28,0-4.37,1.28-9.49,3.84-15.36,2.56-5.87,4.8-8.8,6.72-8.8,1.07,0,4.67,1.18,10.8,3.52,6.13,2.35,11.3,3.52,15.52,3.52s6.99-.27,8.32-.8c1.33-.53,2-1.57,2-3.12s-1.07-2.77-3.2-3.68c-2.13-.9-4.8-1.52-8-1.84s-6.64-.96-10.32-1.92c-3.68-.96-7.12-2.19-10.32-3.68-3.2-1.49-5.87-3.97-8-7.44-2.14-3.46-3.2-7.2-3.2-11.2s.1-6.99.32-8.96c.21-1.97,1.09-4.74,2.64-8.32,1.54-3.57,3.73-6.48,6.56-8.72,2.83-2.24,7.2-4.27,13.12-6.08,5.92-1.81,12.56-2.72,19.92-2.72s13.52.24,18.48.72,8.85,1.09,11.68,1.84c2.83.75,5.15,1.6,6.96,2.56,3.09,1.6,4.64,3.36,4.64,5.28,0,4.16-1.5,8.96-4.48,14.4-2.99,5.44-5.36,8.16-7.12,8.16s-5.58-.93-11.44-2.8c-5.87-1.87-10.19-2.8-12.96-2.8-4.48,0-6.72,1.28-6.72,3.84,0,1.6,1.52,2.8,4.56,3.6,3.04.8,6.69,1.63,10.96,2.48,4.26.85,8.56,2.05,12.88,3.6,4.32,1.55,8,4.35,11.04,8.4,3.04,4.05,4.56,9.17,4.56,15.36,0,20.91-14.88,31.36-44.64,31.36Z"/>
          <path class="cls-29" d="m536.47,234.13c-8,0-14.88-.69-20.64-2.08-5.76-1.38-10.99-3.84-15.68-7.36-9.71-7.04-14.56-20.16-14.56-39.36,0-17.06,4.96-29.28,14.88-36.64,9.28-6.83,21.28-10.24,36-10.24,6.29,0,11.68.3,16.16.88,4.48.59,9.04,1.84,13.68,3.76,4.64,1.92,8.37,4.54,11.2,7.84,2.83,3.31,5.15,7.87,6.96,13.68,1.81,5.81,2.72,12.72,2.72,20.72,0,16.21-4.59,28.4-13.76,36.56-9.17,8.16-21.5,12.24-36.96,12.24Zm-5.6-31.2c.75,3.84,1.52,6.13,2.32,6.88.8.75,1.87,1.12,3.2,1.12s2.4-.37,3.2-1.12c.8-.75,1.54-3.04,2.24-6.88.69-3.84,1.04-8.67,1.04-14.48s-.14-10.29-.4-13.44c-.27-3.15-.59-5.57-.96-7.28-.38-1.71-.88-3.04-1.52-4-.96-1.39-2.11-2.08-3.44-2.08s-2.43.4-3.28,1.2c-.85.8-1.65,3.15-2.4,7.04-.75,3.9-1.12,9.42-1.12,16.56s.37,12.64,1.12,16.48Z"/>
          <path class="cls-29" d="m639.99,115.25v113.6c0,1.17-3.04,2.11-9.12,2.8-6.08.69-12.35,1.04-18.8,1.04s-10.62-.29-12.48-.88c-1.87-.58-2.8-1.57-2.8-2.96v-110.72c0-2.34,3.01-4.64,9.04-6.88,6.03-2.24,12.5-3.36,19.44-3.36,9.81,0,14.72,2.45,14.72,7.36Z"/>
        </g>
      </g>
    </g>
  </g>
</svg>